<svg xmlns="http://www.w3.org/2000/svg" viewBox="0 0 1296.35 69.34"><defs><style>.cls-1{fill:#fff;}</style></defs><title>ambient_title</title><g id="Layer_2" data-name="Layer 2"><g id="Layer_1-2" data-name="Layer 1"><path class="cls-1" d="M66.49,68h-15L45.7,53.32H20.8L15.07,68H0L26.68,1.37H39.91ZM53.56,65h8.51L37.87,4.37H28.71L4.43,65H13l5.73-14.65h29ZM45.71,43.77H20.79L33.25,11Zm-20.57-3H41.35L33.25,19.46Z"/><path class="cls-1" d="M145,68H131.12V32L114.65,68h-7.39L90.8,32V68H76.88V1.37H90.63L111,45.85,131.29,1.37H145Zm-10.92-3H142V4.37h-8.82L111,53.07,88.7,4.37H79.88V65H87.8V18.29L109.19,65h3.53l21.39-46.69Z"/><path class="cls-1" d="M193.5,68H160.24V1.37H192c6.18,0,11.09,1.6,14.61,4.75S211.92,14,211.92,20a17,17,0,0,1-2.35,8.82,16.41,16.41,0,0,1-3.81,4.43C211.25,36,214,41,214,48.18a19.86,19.86,0,0,1-2.77,10.57,18.39,18.39,0,0,1-7.47,6.88A22.55,22.55,0,0,1,193.5,68Zm-30.26-3H193.5a19.58,19.58,0,0,0,8.92-2,15.43,15.43,0,0,0,6.27-5.77,16.91,16.91,0,0,0,2.33-9c0-6.92-2.91-11.25-8.89-13.23l-3.31-1.09,3.07-1.65a13.15,13.15,0,0,0,5.11-5A14,14,0,0,0,208.92,20c0-5.18-1.43-9-4.37-11.62s-7.19-4-12.6-4H163.24Zm27.62-6.1H171.71V37.13h18.52c3.8,0,6.79.88,8.88,2.62s3.27,4.68,3.27,8.52-1.07,6.66-3.18,8.29S194.4,58.87,190.86,58.87Zm-16.15-3h16.15c2.86,0,5-.57,6.5-1.69s2-3,2-5.91-.74-5-2.19-6.22-3.88-1.93-7-1.93H174.71Zm15.43-25H171.71V10.46h17.88c3.37,0,6,.74,7.81,2.2s2.88,4.24,2.88,8c0,3.34-1,5.9-2.86,7.62A10.5,10.5,0,0,1,190.13,30.85Zm-15.43-3h15.43a7.51,7.51,0,0,0,5.27-1.75c1.26-1.14,1.87-2.9,1.87-5.39,0-2.84-.59-4.76-1.76-5.7s-3.26-1.53-5.93-1.53H174.71Z"/><path class="cls-1" d="M242,68H227.4V1.37H242ZM230.4,65H239V4.37H230.4Z"/><path class="cls-1" d="M303.2,68h-46V1.37h46V13.92H271.71V28.39H295.1V40.95H271.71V55.42H303.2Zm-43-3h40V58.42H268.71V37.95H292.1V31.39H268.71V10.92H300.2V4.37h-40Z"/><path class="cls-1" d="M370.9,68H357.68L330.22,27V68H315.66V1.37h13.22l27.46,40.89V1.37H370.9Zm-11.62-3h8.62V4.37h-8.56V52.11L327.28,4.37h-8.62V65h8.56V17.13Z"/><path class="cls-1" d="M416.22,68H401.66V13.92h-19.2V1.37h53V13.92h-19.2Zm-11.56-3h8.56V10.92h19.2V4.37h-47v6.55h19.2Z"/><path class="cls-1" d="M506.9,69.34a61.47,61.47,0,0,1-11.43-1.07,38,38,0,0,1-9.43-2.9l-.84-.41V51.71l2.15,1a42,42,0,0,0,9.22,3.16A44.71,44.71,0,0,0,506.08,57c3.73,0,6.56-.67,8.41-2A5.82,5.82,0,0,0,517,49.91a5.89,5.89,0,0,0-1.14-3.77,10.91,10.91,0,0,0-3.77-2.86c-1.83-.91-4.69-2.13-8.52-3.63-6.15-2.51-10.68-5.36-13.49-8.5a17.51,17.51,0,0,1-4.39-12.1A17.11,17.11,0,0,1,488.83,9a19.7,19.7,0,0,1,8.55-6.7A31.19,31.19,0,0,1,509.72,0a50.46,50.46,0,0,1,10,.89,42.13,42.13,0,0,1,8.64,2.78l.89.4v13l-2.15-1a35.18,35.18,0,0,0-15.36-3.67c-3.56,0-6.31.63-8.17,1.88A5.41,5.41,0,0,0,501,19.06a5.52,5.52,0,0,0,1.12,3.64,10.44,10.44,0,0,0,3.39,2.62c1.56.8,4.45,2.08,8.59,3.82a56.94,56.94,0,0,1,10.33,5.33,19.06,19.06,0,0,1,6,6.47,18.71,18.71,0,0,1,2,9c0,6.11-2.25,10.93-6.68,14.34S515.15,69.34,506.9,69.34Zm-18.7-6.28A37.51,37.51,0,0,0,496,65.32h0a58.48,58.48,0,0,0,10.87,1c7.57,0,13.33-1.47,17.1-4.38s5.51-6.76,5.51-12a15.77,15.77,0,0,0-1.68-7.61A16.08,16.08,0,0,0,522.74,37a54,54,0,0,0-9.78-5c-4.27-1.8-7.15-3.08-8.8-3.92a13.39,13.39,0,0,1-4.35-3.39,8.49,8.49,0,0,1-1.8-5.55,8.32,8.32,0,0,1,3.85-7.3c2.36-1.59,5.68-2.39,9.85-2.39a37.5,37.5,0,0,1,14.52,3V6a38.88,38.88,0,0,0-7.13-2.2A47.46,47.46,0,0,0,509.72,3a28.23,28.23,0,0,0-11.15,2.06,16.75,16.75,0,0,0-7.28,5.67,14,14,0,0,0-2.55,8.33,14.42,14.42,0,0,0,3.62,10.1c2.5,2.79,6.67,5.39,12.37,7.71,3.89,1.52,6.84,2.78,8.75,3.73a13.82,13.82,0,0,1,4.79,3.69A8.89,8.89,0,0,1,520,49.91a8.75,8.75,0,0,1-3.81,7.5c-2.37,1.7-5.79,2.55-10.15,2.55a47.69,47.69,0,0,1-10.15-1.13,45.3,45.3,0,0,1-7.73-2.43Z"/><path class="cls-1" d="M579.33,69.34a37.42,37.42,0,0,1-18-4.32,32.12,32.12,0,0,1-12.69-12.26,35.25,35.25,0,0,1-4.62-18,35.25,35.25,0,0,1,4.62-18,32.45,32.45,0,0,1,12.68-12.3,38.93,38.93,0,0,1,35.83,0,32.48,32.48,0,0,1,12.68,12.3,35.27,35.27,0,0,1,4.62,18,35,35,0,0,1-4.62,18A32.55,32.55,0,0,1,597.2,65,36.93,36.93,0,0,1,579.33,69.34Zm0-66.34A34.17,34.17,0,0,0,562.8,7a29.5,29.5,0,0,0-11.52,11.18,32.3,32.3,0,0,0-4.21,16.53,32.29,32.29,0,0,0,4.21,16.53A29.16,29.16,0,0,0,562.8,62.38h0a34.46,34.46,0,0,0,16.53,4,34,34,0,0,0,16.44-4A29.59,29.59,0,0,0,607.29,51.2a32.06,32.06,0,0,0,4.21-16.48,32.32,32.32,0,0,0-4.21-16.53A29.52,29.52,0,0,0,595.77,7,34,34,0,0,0,579.33,3Zm0,55.87a24.33,24.33,0,0,1-11.87-3,22.05,22.05,0,0,1-8.59-8.48,25.16,25.16,0,0,1-3.16-12.71,25.25,25.25,0,0,1,3.11-12.61,22.07,22.07,0,0,1,8.54-8.53,24.25,24.25,0,0,1,12-3,24,24,0,0,1,11.93,3,22.18,22.18,0,0,1,8.49,8.53,25.27,25.27,0,0,1,3.11,12.61,25.17,25.17,0,0,1-3.16,12.71,22.15,22.15,0,0,1-8.54,8.48A24.08,24.08,0,0,1,579.33,58.87Zm0-45.32a21.27,21.27,0,0,0-10.51,2.63,19.11,19.11,0,0,0-7.39,7.39,22.3,22.3,0,0,0-2.72,11.14,22.2,22.2,0,0,0,2.76,11.22,19.1,19.1,0,0,0,7.43,7.35,21.37,21.37,0,0,0,10.43,2.59,21.11,21.11,0,0,0,10.37-2.59h0a19.2,19.2,0,0,0,7.39-7.35,22.21,22.21,0,0,0,2.76-11.22,22.32,22.32,0,0,0-2.72-11.14,19.22,19.22,0,0,0-7.35-7.4A21,21,0,0,0,579.33,13.56Z"/><path class="cls-1" d="M656.13,69.34c-9.36,0-16.56-2.53-21.41-7.51h0c-4.84-5-7.3-11.73-7.3-20.11V1.37H642V41.9c0,4.64,1.23,8.05,3.76,10.42s6,3.55,10.4,3.55,7.75-1.16,10.3-3.55,3.76-5.77,3.76-10.42V1.37h14.56V41.72c0,8.38-2.44,15.14-7.25,20.11S665.49,69.34,656.13,69.34Zm-25.71-65V41.72c0,7.57,2.17,13.63,6.44,18h0c4.27,4.38,10.75,6.6,19.26,6.6s15-2.22,19.21-6.6,6.4-10.45,6.4-18V4.37H673.2V41.9c0,5.44-1.58,9.68-4.71,12.61s-7.25,4.36-12.35,4.36-9.35-1.47-12.45-4.36S639,47.35,639,41.9V4.37Z"/><path class="cls-1" d="M754.73,68H741.51L714.05,27V68H699.5V1.37h13.22l27.46,40.89V1.37h14.56Zm-11.62-3h8.62V4.37h-8.56V52.11L711.12,4.37H702.5V65h8.56V17.13Z"/><path class="cls-1" d="M791.72,68H769.93V1.37h22.79a41.51,41.51,0,0,1,18.69,4,28.89,28.89,0,0,1,12.37,11.51,34.55,34.55,0,0,1,4.3,17.49c0,11-3.26,19.4-9.7,25.1S803,68,791.72,68Zm-18.79-3h18.79c10.55,0,18.85-2.61,24.67-7.77s8.69-12.8,8.69-22.86a31.6,31.6,0,0,0-3.9-16A25.93,25.93,0,0,0,810.07,8a38.55,38.55,0,0,0-17.35-3.66H772.93Zm19-6.56H781.49V10.92h11.6a24.88,24.88,0,0,1,12.39,3,20.51,20.51,0,0,1,8.14,8.33,25.54,25.54,0,0,1,2.81,12.13c0,7.48-2.15,13.42-6.4,17.67S799.68,58.42,791.9,58.42Zm-7.42-3h7.42c7,0,12.34-1.86,16-5.52s5.52-8.89,5.52-15.55A22.59,22.59,0,0,0,811,23.63a17.56,17.56,0,0,0-7-7.13,21.94,21.94,0,0,0-10.91-2.58h-8.6Z"/><path class="cls-1" d="M947.37,68h-13L922.76,27.67,911.15,68h-13l-19-66.61h15.14l11.5,40.88L917.16,1.37h11.2L939.7,42.24,951.2,1.37h15.14Zm-10.74-3h8.48L962.36,4.37h-8.89l-13.79,49-13.6-49h-6.64l-13.6,49L892,4.37h-8.89L900.42,65h8.48l13.87-48.14Z"/><path class="cls-1" d="M1025.27,68h-46V1.37h46V13.92H993.78V28.39h23.39V40.95H993.78V55.42h31.49Zm-43-3h40V58.42H990.78V37.95h23.39V31.39H990.78V10.92h31.49V4.37h-40Z"/><path class="cls-1" d="M1071,68h-33.26V1.37h31.71c6.18,0,11.09,1.6,14.61,4.75s5.37,7.86,5.37,13.86a17,17,0,0,1-2.35,8.82,16.43,16.43,0,0,1-3.81,4.43c5.48,2.77,8.25,7.79,8.25,15a19.86,19.86,0,0,1-2.77,10.57,18.39,18.39,0,0,1-7.47,6.88A22.55,22.55,0,0,1,1071,68Zm-30.26-3H1071a19.58,19.58,0,0,0,8.92-2,15.43,15.43,0,0,0,6.27-5.77,16.91,16.91,0,0,0,2.33-9c0-6.92-2.91-11.25-8.89-13.23l-3.31-1.09,3.07-1.65a13.17,13.17,0,0,0,5.11-5,14,14,0,0,0,1.93-7.29c0-5.18-1.43-9-4.37-11.62s-7.19-4-12.6-4h-28.71Zm27.62-6.1H1049.2V37.13h18.52c3.8,0,6.79.88,8.88,2.62s3.27,4.68,3.27,8.52-1.07,6.66-3.18,8.29S1071.9,58.87,1068.36,58.87Zm-16.15-3h16.15c2.86,0,5-.57,6.5-1.69s2-3,2-5.91-.74-5-2.19-6.22-3.88-1.93-7-1.93H1052.2Zm15.43-25H1049.2V10.46h17.88c3.37,0,6,.74,7.81,2.2s2.88,4.24,2.88,8c0,3.34-1,5.9-2.86,7.62A10.5,10.5,0,0,1,1067.63,30.85Zm-15.43-3h15.43a7.51,7.51,0,0,0,5.27-1.75c1.26-1.14,1.87-2.9,1.87-5.39,0-2.84-.59-4.76-1.76-5.7s-3.26-1.53-5.93-1.53H1052.2Z"/><path class="cls-1" d="M1120.68,69.34a61.47,61.47,0,0,1-11.43-1.07,38,38,0,0,1-9.43-2.9L1099,65V51.71l2.15,1a42,42,0,0,0,9.23,3.16,44.69,44.69,0,0,0,9.51,1.06c3.73,0,6.56-.67,8.41-2a5.82,5.82,0,0,0,2.56-5.06,5.89,5.89,0,0,0-1.14-3.77,10.92,10.92,0,0,0-3.77-2.86c-1.83-.91-4.7-2.13-8.52-3.63-6.15-2.51-10.68-5.37-13.49-8.5a17.52,17.52,0,0,1-4.39-12.1A17.11,17.11,0,0,1,1102.62,9a19.7,19.7,0,0,1,8.55-6.7A31.2,31.2,0,0,1,1123.5,0a50.47,50.47,0,0,1,10,.89,42.13,42.13,0,0,1,8.63,2.78l.89.4v13l-2.15-1a35.17,35.17,0,0,0-15.36-3.67c-3.56,0-6.31.63-8.17,1.88a5.41,5.41,0,0,0-2.52,4.81,5.53,5.53,0,0,0,1.12,3.64,10.44,10.44,0,0,0,3.39,2.62c1.56.8,4.45,2.08,8.59,3.82a56.91,56.91,0,0,1,10.33,5.34,19,19,0,0,1,6,6.47,18.71,18.71,0,0,1,2,9c0,6.11-2.25,10.93-6.68,14.34S1128.93,69.34,1120.68,69.34ZM1102,63.06a37.52,37.52,0,0,0,7.83,2.26h0a58.48,58.48,0,0,0,10.87,1c7.57,0,13.33-1.47,17.1-4.38s5.51-6.76,5.51-12a15.78,15.78,0,0,0-1.68-7.61,16.09,16.09,0,0,0-5.09-5.44,54,54,0,0,0-9.78-5c-4.27-1.8-7.15-3.08-8.8-3.92a13.4,13.4,0,0,1-4.35-3.39,8.49,8.49,0,0,1-1.8-5.55,8.32,8.32,0,0,1,3.85-7.3c2.36-1.59,5.68-2.39,9.84-2.39a37.5,37.5,0,0,1,14.52,3V6a38.87,38.87,0,0,0-7.13-2.2A47.46,47.46,0,0,0,1123.5,3a28.24,28.24,0,0,0-11.15,2.06,16.75,16.75,0,0,0-7.28,5.67,14,14,0,0,0-2.55,8.33,14.42,14.42,0,0,0,3.62,10.1c2.5,2.79,6.67,5.39,12.37,7.71,3.89,1.52,6.84,2.78,8.75,3.73a13.84,13.84,0,0,1,4.79,3.69,8.89,8.89,0,0,1,1.77,5.61,8.75,8.75,0,0,1-3.81,7.5c-2.37,1.7-5.79,2.55-10.15,2.55a47.68,47.68,0,0,1-10.15-1.13,45.35,45.35,0,0,1-7.74-2.43Z"/><path class="cls-1" d="M1174.23,68h-14.56V1.37h14.56Zm-11.56-3h8.56V4.37h-8.56Z"/><path class="cls-1" d="M1219.55,68H1205V13.92h-19.2V1.37h53V13.92h-19.2ZM1208,65h8.56V10.92h19.2V4.37h-47v6.55H1208Z"/><path class="cls-1" d="M1296.35,68h-46V1.37h46V13.92h-31.49V28.39h23.39V40.95h-23.39V55.42h31.49Zm-43-3h40V58.42h-31.49V37.95h23.39V31.39h-23.39V10.92h31.49V4.37h-40Z"/></g></g></svg>