<svg xmlns="http://www.w3.org/2000/svg" viewBox="0 0 943.86 69.34"><defs><style>.cls-1{fill:none;stroke:#fff;stroke-miterlimit:10;stroke-width:3px;}</style></defs><title>backtowork</title><g id="Layer_2" data-name="Layer 2"><g id="Layer_1-2" data-name="Layer 1"><path class="cls-1" d="M156.47,2.87h30.21q8.74,0,13.6,4.37T205.16,20A15.46,15.46,0,0,1,203,28a14.56,14.56,0,0,1-5.69,5.5q9.92,3.28,9.92,14.65A18.29,18.29,0,0,1,204.7,58a16.83,16.83,0,0,1-6.87,6.32,21,21,0,0,1-9.6,2.18H156.47Zm28.39,26.48a9,9,0,0,0,6.28-2.14q2.37-2.14,2.37-6.51,0-5-2.32-6.87T184.32,12H167.94V29.35Zm.73,28q4.82,0,7.42-2t2.59-7.1q0-5.09-2.73-7.37T185,38.63h-17V57.37Z"/><path class="cls-1" d="M241.37,2.87h11.19L278,66.47H266.22l-5.82-14.65H233.46l-5.73,14.65H215.89Zm15.83,39.4-10.28-27-10.28,27Z"/><path class="cls-1" d="M303.8,63.79a29,29,0,0,1-12-11.56,34.77,34.77,0,0,1-4.28-17.52,34.77,34.77,0,0,1,4.28-17.52,29.31,29.31,0,0,1,12-11.6A37.35,37.35,0,0,1,321.55,1.5q13.19,0,22,6.28v11q-7.92-6.73-21-6.73a26,26,0,0,0-12.28,2.78,19.89,19.89,0,0,0-8.19,7.87,23.8,23.8,0,0,0-2.91,12,23.5,23.5,0,0,0,3,12,20.17,20.17,0,0,0,8.24,7.87,25.8,25.8,0,0,0,12.19,2.78,39.44,39.44,0,0,0,12-1.68,28.62,28.62,0,0,0,9.74-5.41v11q-8.37,6.55-22.75,6.55A37.7,37.7,0,0,1,303.8,63.79Z"/><path class="cls-1" d="M360.67,2.87h11.56V31.71L398.35,2.87h13.83L384,34l30,32.49H400.17L372.23,36.26V66.47H360.67Z"/><path class="cls-1" d="M486,12.42h-19.2V2.87h50v9.55h-19.2V66.47H486Z"/><path class="cls-1" d="M541,63.7A30.5,30.5,0,0,1,528.89,52a33.61,33.61,0,0,1-4.41-17.29,33.62,33.62,0,0,1,4.41-17.29A30.84,30.84,0,0,1,541,5.69a37.43,37.43,0,0,1,34.4,0,30.86,30.86,0,0,1,12.1,11.74,33.64,33.64,0,0,1,4.41,17.29A33.39,33.39,0,0,1,587.49,52a30.93,30.93,0,0,1-12.1,11.69,35.29,35.29,0,0,1-17.15,4.19A35.78,35.78,0,0,1,541,63.7Zm28.35-9.1a20.58,20.58,0,0,0,8-7.92,23.59,23.59,0,0,0,3-12,23.69,23.69,0,0,0-2.91-11.87,20.61,20.61,0,0,0-7.92-8,22.41,22.41,0,0,0-11.19-2.82A22.65,22.65,0,0,0,547,14.88a20.5,20.5,0,0,0-8,8,23.67,23.67,0,0,0-2.91,11.88,23.57,23.57,0,0,0,3,12,20.48,20.48,0,0,0,8,7.92,22.75,22.75,0,0,0,11.15,2.78A22.49,22.49,0,0,0,569.34,54.6Z"/><path class="cls-1" d="M646.5,2.87h12l12.65,45,12.47-45h8.92l12.47,45,12.65-45h12L711.57,66.47H700.83L688.09,22.25,675.35,66.47H664.61Z"/><path class="cls-1" d="M754.84,63.7A30.5,30.5,0,0,1,742.73,52a33.61,33.61,0,0,1-4.41-17.29,33.62,33.62,0,0,1,4.41-17.29,30.84,30.84,0,0,1,12.1-11.74,37.43,37.43,0,0,1,34.4,0,30.86,30.86,0,0,1,12.1,11.74,33.63,33.63,0,0,1,4.41,17.29A33.38,33.38,0,0,1,801.34,52a30.93,30.93,0,0,1-12.1,11.69,35.29,35.29,0,0,1-17.15,4.19A35.78,35.78,0,0,1,754.84,63.7Zm28.35-9.1a20.59,20.59,0,0,0,8-7.92,23.59,23.59,0,0,0,3-12,23.68,23.68,0,0,0-2.91-11.87,20.61,20.61,0,0,0-7.92-8,22.41,22.41,0,0,0-11.19-2.82,22.66,22.66,0,0,0-11.24,2.82,20.5,20.5,0,0,0-8,8A23.67,23.67,0,0,0,750,34.71a23.58,23.58,0,0,0,3,12,20.48,20.48,0,0,0,8,7.92,22.74,22.74,0,0,0,11.15,2.78A22.49,22.49,0,0,0,783.18,54.6Z"/><path class="cls-1" d="M822.13,2.87H848.7q10.56,0,16.29,5.19t5.73,15A20.19,20.19,0,0,1,867.27,35a18.75,18.75,0,0,1-9.83,7l12.92,24.48H858.53l-12.29-23.3H833.69v23.3H822.13Zm24.48,30.76a14.6,14.6,0,0,0,9.1-2.64q3.46-2.64,3.46-7.92,0-10.65-12.56-10.65H833.69v21.2Z"/><path class="cls-1" d="M887.1,2.87h11.56V31.71L924.78,2.87h13.83L910.4,34l30,32.49H926.6L898.66,36.26V66.47H887.1Z"/><polygon class="cls-1" points="102.38 30.81 17.91 30.81 41.96 8.46 36.62 2.73 2.2 34.73 36.62 66.72 41.96 60.99 17.89 38.63 102.38 38.63 102.38 30.81"/></g></g></svg>