<svg xmlns="http://www.w3.org/2000/svg" viewBox="0 0 1203.18 69.34"><defs><style>.cls-1{fill:none;stroke:#fff;stroke-miterlimit:10;stroke-width:3px;}</style></defs><title>dan_title</title><g id="Layer_2" data-name="Layer 2"><g id="Layer_1-2" data-name="Layer 1"><path class="cls-1" d="M1.5,2.87H22.79a39.84,39.84,0,0,1,18,3.82A27.29,27.29,0,0,1,52.55,17.61a32.93,32.93,0,0,1,4.09,16.74q0,15.83-9.19,24T21.79,66.47H1.5ZM22,56.92q11.1,0,17.06-6t6-16.61a24,24,0,0,0-2.64-11.42,19,19,0,0,0-7.55-7.73,23.31,23.31,0,0,0-11.65-2.78H13.06v44.5Z"/><path class="cls-1" d="M90.77,2.87H102l25.39,63.61H115.61l-5.82-14.65H82.85L77.12,66.47H65.29Zm15.83,39.4-10.28-27L86,42.27Z"/><path class="cls-1" d="M143.73,2.87h10.92l29.76,44.32V2.87H196V66.47H185L155.29,22.07V66.47H143.73Z"/><path class="cls-1" d="M254.2,2.87h11.56V29.25h30.58V2.87H307.8V66.47H296.34V38.81H265.76V66.47H254.2Z"/><path class="cls-1" d="M332.42,60.79q-6.87-7.05-6.87-19.06V2.87h11.56v39q0,7.55,4.23,11.51t11.42,4q7.1,0,11.33-4t4.23-11.51v-39h11.56V41.72q0,12-6.83,19.06t-20.29,7.05Q339.29,67.84,332.42,60.79Z"/><path class="cls-1" d="M397.62,2.87h11.56V66.47H397.62Z"/><path class="cls-1" d="M442.94,12.42h-19.2V2.87h50v9.55h-19.2V66.47H442.94Z"/><path class="cls-1" d="M488.25,2.87h11.56V66.47H488.25Z"/><path class="cls-1" d="M518,2.87h10.92l29.76,44.32V2.87h11.56V66.47H559.32L529.57,22.07V66.47H518Z"/><path class="cls-1" d="M602.91,63.79a29,29,0,0,1-12-11.56,34.77,34.77,0,0,1-4.28-17.52A34.77,34.77,0,0,1,590.9,17.2a29.31,29.31,0,0,1,12-11.6A37.35,37.35,0,0,1,620.66,1.5,46.76,46.76,0,0,1,632.85,3a29.49,29.49,0,0,1,9.74,4.64v11a24.71,24.71,0,0,0-9.19-5,41.1,41.1,0,0,0-11.74-1.55,25.31,25.31,0,0,0-11.88,2.78,21,21,0,0,0-8.42,7.92,22.75,22.75,0,0,0-3.09,12,24,24,0,0,0,2.91,12.06,19.94,19.94,0,0,0,8.1,7.92,24.67,24.67,0,0,0,11.83,2.78,24.94,24.94,0,0,0,11.56-2.37V40.81H621.93V31.62h22.29V61.29q-8.46,6.55-23.57,6.55A37.7,37.7,0,0,1,602.91,63.79Z"/><path class="cls-1" d="M663.43,1.5h11.1l-7.28,17.84h-9.83Z"/><path class="cls-1" d="M698.14,66.79A36.35,36.35,0,0,1,689.09,64V54.1a43.31,43.31,0,0,0,9.55,3.28,46,46,0,0,0,9.83,1.09q6.1,0,9.28-2.28a7.29,7.29,0,0,0,3.19-6.28,7.4,7.4,0,0,0-1.46-4.69,12.31,12.31,0,0,0-4.28-3.28q-2.82-1.41-8.64-3.69-8.92-3.64-12.92-8.1a16,16,0,0,1-4-11.1,15.56,15.56,0,0,1,2.82-9.19,18.14,18.14,0,0,1,7.92-6.19A29.57,29.57,0,0,1,712.11,1.5a48.76,48.76,0,0,1,9.69.86A40.4,40.4,0,0,1,730.13,5V14.7a36.5,36.5,0,0,0-16-3.82q-5.82,0-9,2.14a6.87,6.87,0,0,0-3.18,6.05,7,7,0,0,0,1.46,4.6,11.87,11.87,0,0,0,3.87,3q2.41,1.23,8.69,3.87A55.24,55.24,0,0,1,726,35.72a17.49,17.49,0,0,1,5.55,6A17.17,17.17,0,0,1,733.41,50q0,8.46-6.1,13.15t-18,4.69A59.67,59.67,0,0,1,698.14,66.79Z"/><path class="cls-1" d="M788,2.87h12l12.65,45,12.47-45H834l12.47,45,12.65-45h12L853.07,66.47H842.33L829.59,22.25,816.85,66.47H806.11Z"/><path class="cls-1" d="M887.56,2.87h43v9.55H899.11V29.89H922.5v9.56H899.11V56.92H930.6v9.56h-43Z"/><path class="cls-1" d="M946.07,2.87h30.21q8.74,0,13.6,4.37T994.75,20A15.46,15.46,0,0,1,992.62,28a14.57,14.57,0,0,1-5.69,5.5q9.92,3.28,9.92,14.65A18.3,18.3,0,0,1,994.3,58a16.83,16.83,0,0,1-6.87,6.32,21,21,0,0,1-9.6,2.18H946.07Zm28.39,26.48a9,9,0,0,0,6.28-2.14q2.37-2.14,2.37-6.51,0-5-2.32-6.87T973.91,12H957.53V29.35Zm.73,28q4.82,0,7.42-2t2.59-7.1q0-5.09-2.73-7.37t-7.92-2.28h-17V57.37Z"/><path class="cls-1" d="M1016.36,66.79a36.36,36.36,0,0,1-9.05-2.78V54.1a43.31,43.31,0,0,0,9.56,3.28,46,46,0,0,0,9.83,1.09q6.1,0,9.28-2.28a7.29,7.29,0,0,0,3.19-6.28,7.4,7.4,0,0,0-1.46-4.69,12.31,12.31,0,0,0-4.28-3.28q-2.82-1.41-8.64-3.69-8.92-3.64-12.92-8.1a16,16,0,0,1-4-11.1,15.56,15.56,0,0,1,2.82-9.19,18.14,18.14,0,0,1,7.92-6.19,29.57,29.57,0,0,1,11.74-2.18,48.76,48.76,0,0,1,9.69.86A40.4,40.4,0,0,1,1048.35,5V14.7a36.5,36.5,0,0,0-16-3.82q-5.82,0-9,2.14a6.87,6.87,0,0,0-3.19,6.05,7,7,0,0,0,1.46,4.6,11.87,11.87,0,0,0,3.87,3q2.41,1.23,8.69,3.87a55.24,55.24,0,0,1,10.05,5.19,17.49,17.49,0,0,1,5.55,6,17.17,17.17,0,0,1,1.87,8.33q0,8.46-6.1,13.15t-18,4.69A59.67,59.67,0,0,1,1016.36,66.79Z"/><path class="cls-1" d="M1068,2.87h11.56V66.47H1068Z"/><path class="cls-1" d="M1113.32,12.42h-19.2V2.87h50v9.55h-19.2V66.47h-11.56Z"/><path class="cls-1" d="M1158.64,2.87h43v9.55H1170.2V29.89h23.39v9.56H1170.2V56.92h31.49v9.56h-43Z"/></g></g></svg>