<svg xmlns="http://www.w3.org/2000/svg" viewBox="0 0 835.18 69.34"><defs><style>.cls-1{fill:#fff;}</style></defs><title>lizzo_title</title><g id="Layer_2" data-name="Layer 2"><g id="Layer_1-2" data-name="Layer 1"><path class="cls-1" d="M45.13,68H0V1.37H14.56V55.42H45.13ZM3,65H42.13V58.42H11.56V4.37H3Z"/><path class="cls-1" d="M71.25,68H56.69V1.37H71.25ZM59.69,65h8.56V4.37H59.69Z"/><path class="cls-1" d="M136.68,68h-52V58.44l31.89-44.52H85.45V1.37H135V10.9l-31.8,44.52h33.44Zm-49-3h46V58.42H97.41L132,9.94V4.37H88.45v6.55h33.91L87.63,59.4Z"/><path class="cls-1" d="M198.92,68h-52V58.44l31.89-44.52H147.69V1.37h49.59V10.9l-31.8,44.52h33.44Zm-49-3h46V58.42H159.65L194.28,9.94V4.37H150.69v6.55H184.6L149.87,59.4Z"/><path class="cls-1" d="M242.56,69.34a37.42,37.42,0,0,1-18-4.32,32.12,32.12,0,0,1-12.69-12.26,35.25,35.25,0,0,1-4.62-18,35.25,35.25,0,0,1,4.62-18A32.45,32.45,0,0,1,224.6,4.37a38.93,38.93,0,0,1,35.83,0,32.48,32.48,0,0,1,12.68,12.3,35.27,35.27,0,0,1,4.62,18,35,35,0,0,1-4.62,18A32.55,32.55,0,0,1,260.43,65,36.93,36.93,0,0,1,242.56,69.34Zm0-66.34A34.17,34.17,0,0,0,226,7a29.5,29.5,0,0,0-11.52,11.18,32.3,32.3,0,0,0-4.21,16.53,32.29,32.29,0,0,0,4.21,16.53A29.16,29.16,0,0,0,226,62.38h0a34.46,34.46,0,0,0,16.53,4,34,34,0,0,0,16.44-4A29.59,29.59,0,0,0,270.52,51.2a32.06,32.06,0,0,0,4.21-16.48,32.32,32.32,0,0,0-4.21-16.53A29.52,29.52,0,0,0,259,7,34,34,0,0,0,242.56,3Zm0,55.87a24.33,24.33,0,0,1-11.87-3,22.05,22.05,0,0,1-8.59-8.48,25.16,25.16,0,0,1-3.16-12.71,25.25,25.25,0,0,1,3.11-12.61,22.07,22.07,0,0,1,8.54-8.53,24.25,24.25,0,0,1,12-3,24,24,0,0,1,11.93,3A22.18,22.18,0,0,1,263,22.1a25.27,25.27,0,0,1,3.11,12.61,25.17,25.17,0,0,1-3.16,12.71,22.15,22.15,0,0,1-8.54,8.48A24.08,24.08,0,0,1,242.56,58.87Zm0-45.32a21.27,21.27,0,0,0-10.51,2.63,19.11,19.11,0,0,0-7.39,7.39,22.3,22.3,0,0,0-2.72,11.14,22.2,22.2,0,0,0,2.76,11.22,19.1,19.1,0,0,0,7.43,7.35,21.37,21.37,0,0,0,10.43,2.59,21.11,21.11,0,0,0,10.37-2.59h0a19.2,19.2,0,0,0,7.39-7.35,22.21,22.21,0,0,0,2.76-11.22,22.32,22.32,0,0,0-2.72-11.14,19.22,19.22,0,0,0-7.35-7.4A21,21,0,0,0,242.56,13.56Z"/><path class="cls-1" d="M300.26,20.84H287.33l7-20.84h14.41Zm-8.75-3h6.73L304.3,3h-7.79Z"/><path class="cls-1" d="M341.29,69.34a61.47,61.47,0,0,1-11.43-1.07,38,38,0,0,1-9.43-2.9l-.84-.41V51.71l2.15,1A42,42,0,0,0,331,55.91,44.71,44.71,0,0,0,340.47,57c3.73,0,6.56-.67,8.41-2a5.82,5.82,0,0,0,2.56-5.06,5.89,5.89,0,0,0-1.14-3.77,10.91,10.91,0,0,0-3.77-2.86c-1.83-.91-4.69-2.13-8.52-3.63-6.15-2.51-10.68-5.36-13.49-8.5a17.51,17.51,0,0,1-4.39-12.1A17.11,17.11,0,0,1,323.23,9a19.7,19.7,0,0,1,8.55-6.7A31.19,31.19,0,0,1,344.11,0a50.46,50.46,0,0,1,10,.89,42.13,42.13,0,0,1,8.64,2.78l.89.4v13l-2.15-1a35.18,35.18,0,0,0-15.36-3.67c-3.56,0-6.31.63-8.17,1.88a5.41,5.41,0,0,0-2.52,4.81,5.52,5.52,0,0,0,1.12,3.64,10.44,10.44,0,0,0,3.39,2.62c1.56.8,4.45,2.08,8.59,3.82a56.94,56.94,0,0,1,10.33,5.33,19.06,19.06,0,0,1,6,6.47,18.71,18.71,0,0,1,2,9c0,6.11-2.25,10.93-6.68,14.34S349.54,69.34,341.29,69.34Zm-18.7-6.28a37.51,37.51,0,0,0,7.83,2.26h0a58.48,58.48,0,0,0,10.87,1c7.57,0,13.33-1.47,17.1-4.38s5.51-6.76,5.51-12a15.77,15.77,0,0,0-1.68-7.61A16.08,16.08,0,0,0,357.14,37a54,54,0,0,0-9.78-5c-4.27-1.8-7.15-3.08-8.8-3.92a13.39,13.39,0,0,1-4.35-3.39,8.49,8.49,0,0,1-1.8-5.55,8.32,8.32,0,0,1,3.85-7.3c2.36-1.59,5.68-2.39,9.85-2.39a37.5,37.5,0,0,1,14.52,3V6a38.88,38.88,0,0,0-7.13-2.2A47.46,47.46,0,0,0,344.11,3,28.23,28.23,0,0,0,333,5.06a16.75,16.75,0,0,0-7.28,5.67,14,14,0,0,0-2.55,8.33,14.42,14.42,0,0,0,3.62,10.1c2.5,2.79,6.67,5.39,12.37,7.71,3.89,1.52,6.84,2.78,8.75,3.73a13.82,13.82,0,0,1,4.79,3.69,8.89,8.89,0,0,1,1.77,5.61,8.75,8.75,0,0,1-3.81,7.5c-2.37,1.7-5.79,2.55-10.15,2.55a47.69,47.69,0,0,1-10.15-1.13,45.3,45.3,0,0,1-7.73-2.43Z"/><path class="cls-1" d="M486.2,68h-13L461.59,27.67,450,68H437L418,1.37h15.13l11.5,40.88L456,1.37h11.2l11.34,40.88L490,1.37h15.14Zm-10.74-3h8.48L501.19,4.37H492.3l-13.8,49-13.6-49h-6.64l-13.6,49-13.8-49H422L439.25,65h8.48l13.87-48.14Z"/><path class="cls-1" d="M564.1,68h-46V1.37h46V13.92H532.61V28.39H556V40.95H532.61V55.42H564.1Zm-43-3h40V58.42H529.61V37.95H553V31.39H529.61V10.92H561.1V4.37h-40Z"/><path class="cls-1" d="M609.83,68H576.57V1.37h31.71c6.18,0,11.09,1.6,14.61,4.75S628.25,14,628.25,20a17,17,0,0,1-2.35,8.82,16.43,16.43,0,0,1-3.81,4.43c5.48,2.77,8.25,7.79,8.25,15a19.86,19.86,0,0,1-2.77,10.57,18.39,18.39,0,0,1-7.47,6.88A22.55,22.55,0,0,1,609.83,68Zm-30.26-3h30.26a19.58,19.58,0,0,0,8.92-2A15.43,15.43,0,0,0,625,57.18a16.91,16.91,0,0,0,2.33-9c0-6.92-2.91-11.25-8.89-13.23l-3.31-1.09,3.07-1.65a13.17,13.17,0,0,0,5.11-5A14,14,0,0,0,625.25,20c0-5.18-1.43-9-4.37-11.62s-7.19-4-12.6-4H579.57Zm27.62-6.1H588V37.13h18.52c3.8,0,6.79.88,8.88,2.62s3.27,4.68,3.27,8.52-1.07,6.66-3.18,8.29S610.73,58.87,607.19,58.87Zm-16.15-3h16.15c2.86,0,5-.57,6.5-1.69s2-3,2-5.91-.74-5-2.19-6.22-3.88-1.93-7-1.93H591Zm15.43-25H588V10.46h17.88c3.37,0,6,.74,7.81,2.2s2.88,4.24,2.88,8c0,3.34-1,5.9-2.86,7.62A10.5,10.5,0,0,1,606.46,30.85Zm-15.43-3h15.43a7.51,7.51,0,0,0,5.27-1.75c1.26-1.14,1.87-2.9,1.87-5.39,0-2.84-.59-4.76-1.76-5.7s-3.26-1.53-5.93-1.53H591Z"/><path class="cls-1" d="M659.51,69.34a61.47,61.47,0,0,1-11.43-1.07,38,38,0,0,1-9.43-2.9l-.84-.41V51.71l2.15,1a42,42,0,0,0,9.23,3.16A44.69,44.69,0,0,0,658.7,57c3.73,0,6.56-.67,8.41-2a5.82,5.82,0,0,0,2.56-5.06,5.89,5.89,0,0,0-1.14-3.77,10.92,10.92,0,0,0-3.77-2.86c-1.83-.91-4.7-2.13-8.52-3.63-6.15-2.51-10.68-5.37-13.49-8.5a17.52,17.52,0,0,1-4.39-12.1A17.11,17.11,0,0,1,641.45,9,19.7,19.7,0,0,1,650,2.3,31.2,31.2,0,0,1,662.33,0a50.47,50.47,0,0,1,10,.89A42.13,42.13,0,0,1,681,3.68l.89.4v13l-2.15-1a35.17,35.17,0,0,0-15.36-3.67c-3.56,0-6.31.63-8.17,1.88a5.41,5.41,0,0,0-2.52,4.81,5.53,5.53,0,0,0,1.12,3.64,10.44,10.44,0,0,0,3.39,2.62c1.56.8,4.45,2.08,8.59,3.82a56.91,56.91,0,0,1,10.33,5.34,19,19,0,0,1,6,6.47,18.71,18.71,0,0,1,2,9c0,6.11-2.25,10.93-6.68,14.34S667.76,69.34,659.51,69.34Zm-18.7-6.28a37.52,37.52,0,0,0,7.83,2.26h0a58.48,58.48,0,0,0,10.87,1c7.57,0,13.33-1.47,17.1-4.38s5.51-6.76,5.51-12a15.78,15.78,0,0,0-1.68-7.61A16.09,16.09,0,0,0,675.36,37a54.05,54.05,0,0,0-9.78-5c-4.27-1.8-7.15-3.08-8.8-3.92a13.4,13.4,0,0,1-4.35-3.39,8.49,8.49,0,0,1-1.8-5.55,8.32,8.32,0,0,1,3.85-7.3c2.36-1.59,5.68-2.39,9.84-2.39a37.5,37.5,0,0,1,14.52,3V6a38.87,38.87,0,0,0-7.13-2.2A47.46,47.46,0,0,0,662.33,3a28.24,28.24,0,0,0-11.15,2.06,16.75,16.75,0,0,0-7.28,5.67,14,14,0,0,0-2.55,8.33A14.42,14.42,0,0,0,645,29.16c2.5,2.79,6.67,5.39,12.37,7.71,3.89,1.52,6.84,2.78,8.75,3.73a13.84,13.84,0,0,1,4.79,3.69,8.89,8.89,0,0,1,1.77,5.61,8.75,8.75,0,0,1-3.81,7.5c-2.37,1.7-5.79,2.55-10.15,2.55a47.68,47.68,0,0,1-10.15-1.13,45.35,45.35,0,0,1-7.74-2.43Z"/><path class="cls-1" d="M713.06,68H698.51V1.37h14.56Zm-11.56-3h8.56V4.37h-8.56Z"/><path class="cls-1" d="M758.38,68H743.83V13.92h-19.2V1.37h53V13.92h-19.2Zm-11.56-3h8.56V10.92h19.2V4.37h-47v6.55h19.2Z"/><path class="cls-1" d="M835.18,68h-46V1.37h46V13.92H803.7V28.39h23.39V40.95H803.7V55.42h31.49Zm-43-3h40V58.42H800.7V37.95h23.39V31.39H800.7V10.92h31.49V4.37h-40Z"/></g></g></svg>