<svg xmlns="http://www.w3.org/2000/svg" viewBox="0 0 1185.36 69.34"><defs><style>.cls-1{fill:none;stroke:#fff;stroke-miterlimit:10;stroke-width:3px;}</style></defs><title>logos_title</title><g id="Layer_2" data-name="Layer 2"><g id="Layer_1-2" data-name="Layer 1"><path class="cls-1" d="M17.79,63.79a29,29,0,0,1-12-11.56A34.77,34.77,0,0,1,1.5,34.71,34.77,34.77,0,0,1,5.78,17.2a29.31,29.31,0,0,1,12-11.6A37.35,37.35,0,0,1,35.53,1.5q13.19,0,22,6.28v11q-7.92-6.73-21-6.73a26,26,0,0,0-12.28,2.78,19.89,19.89,0,0,0-8.19,7.87,23.8,23.8,0,0,0-2.91,12,23.5,23.5,0,0,0,3,12,20.17,20.17,0,0,0,8.24,7.87,25.8,25.8,0,0,0,12.19,2.78,39.44,39.44,0,0,0,12-1.68,28.62,28.62,0,0,0,9.74-5.41v11q-8.37,6.55-22.75,6.55A37.7,37.7,0,0,1,17.79,63.79Z"/><path class="cls-1" d="M87.09,63.7A30.5,30.5,0,0,1,75,52a33.61,33.61,0,0,1-4.41-17.29A33.62,33.62,0,0,1,75,17.42,30.84,30.84,0,0,1,87.09,5.69a37.43,37.43,0,0,1,34.4,0,30.86,30.86,0,0,1,12.1,11.74A33.64,33.64,0,0,1,138,34.71,33.39,33.39,0,0,1,133.59,52a30.93,30.93,0,0,1-12.1,11.69,35.29,35.29,0,0,1-17.15,4.19A35.78,35.78,0,0,1,87.09,63.7Zm28.35-9.1a20.58,20.58,0,0,0,8-7.92,23.59,23.59,0,0,0,3-12,23.69,23.69,0,0,0-2.91-11.87,20.61,20.61,0,0,0-7.92-8,22.41,22.41,0,0,0-11.19-2.82,22.65,22.65,0,0,0-11.24,2.82,20.5,20.5,0,0,0-8,8,23.67,23.67,0,0,0-2.91,11.88,23.57,23.57,0,0,0,3,12,20.48,20.48,0,0,0,8,7.92,22.75,22.75,0,0,0,11.15,2.78A22.49,22.49,0,0,0,115.43,54.6Z"/><path class="cls-1" d="M154.38,2.87h11.56V56.92h30.58v9.56H154.38Z"/><path class="cls-1" d="M211.07,2.87h11.56V56.92h30.58v9.56H211.07Z"/><path class="cls-1" d="M266.4,2.87h43v9.55H278V29.89h23.39v9.56H278V56.92h31.49v9.56h-43Z"/><path class="cls-1" d="M338,63.79a29,29,0,0,1-12-11.56,34.77,34.77,0,0,1-4.28-17.52A34.77,34.77,0,0,1,326,17.2a29.31,29.31,0,0,1,12-11.6A37.35,37.35,0,0,1,355.76,1.5q13.19,0,22,6.28v11q-7.92-6.73-21-6.73a26,26,0,0,0-12.28,2.78,19.89,19.89,0,0,0-8.19,7.87,23.8,23.8,0,0,0-2.91,12,23.5,23.5,0,0,0,3,12,20.17,20.17,0,0,0,8.24,7.87,25.8,25.8,0,0,0,12.19,2.78,39.44,39.44,0,0,0,12-1.68,28.62,28.62,0,0,0,9.74-5.41v11q-8.37,6.55-22.75,6.55A37.7,37.7,0,0,1,338,63.79Z"/><path class="cls-1" d="M410,12.42H390.8V2.87h50v9.55h-19.2V66.47H410Z"/><path class="cls-1" d="M455.32,2.87h11.56V66.47H455.32Z"/><path class="cls-1" d="M499.77,63.7A30.5,30.5,0,0,1,487.67,52a33.61,33.61,0,0,1-4.41-17.29,33.62,33.62,0,0,1,4.41-17.29,30.84,30.84,0,0,1,12.1-11.74,37.43,37.43,0,0,1,34.4,0,30.86,30.86,0,0,1,12.1,11.74,33.64,33.64,0,0,1,4.41,17.29A33.39,33.39,0,0,1,546.27,52a30.93,30.93,0,0,1-12.1,11.69A35.29,35.29,0,0,1,517,67.84,35.78,35.78,0,0,1,499.77,63.7Zm28.35-9.1a20.58,20.58,0,0,0,8-7.92,23.59,23.59,0,0,0,3-12,23.69,23.69,0,0,0-2.91-11.87,20.61,20.61,0,0,0-7.92-8A22.41,22.41,0,0,0,517,12.06a22.65,22.65,0,0,0-11.24,2.82,20.5,20.5,0,0,0-8,8,23.67,23.67,0,0,0-2.91,11.88,23.57,23.57,0,0,0,3,12,20.48,20.48,0,0,0,8,7.92A22.75,22.75,0,0,0,517,57.37,22.49,22.49,0,0,0,528.12,54.6Z"/><path class="cls-1" d="M567.06,2.87H578l29.76,44.32V2.87H619.3V66.47H608.38L578.62,22.07V66.47H567.06Z"/><path class="cls-1" d="M692.23,63.7A30.5,30.5,0,0,1,680.13,52a33.61,33.61,0,0,1-4.41-17.29,33.62,33.62,0,0,1,4.41-17.29,30.84,30.84,0,0,1,12.1-11.74,37.43,37.43,0,0,1,34.4,0,30.85,30.85,0,0,1,12.1,11.74,33.64,33.64,0,0,1,4.41,17.29A33.39,33.39,0,0,1,738.73,52a30.93,30.93,0,0,1-12.1,11.69,35.28,35.28,0,0,1-17.15,4.19A35.78,35.78,0,0,1,692.23,63.7Zm28.35-9.1a20.59,20.59,0,0,0,8-7.92,23.59,23.59,0,0,0,3-12,23.68,23.68,0,0,0-2.91-11.87,20.61,20.61,0,0,0-7.92-8,22.4,22.4,0,0,0-11.19-2.82,22.65,22.65,0,0,0-11.24,2.82,20.5,20.5,0,0,0-8,8,23.67,23.67,0,0,0-2.91,11.88,23.57,23.57,0,0,0,3,12,20.48,20.48,0,0,0,8,7.92,22.75,22.75,0,0,0,11.15,2.78A22.5,22.5,0,0,0,720.58,54.6Z"/><path class="cls-1" d="M759.53,2.87h43v9.65H771.08V30.35h23.39V39H771.08V66.47H759.53Z"/><path class="cls-1" d="M857.17,2.87h11.56V56.92H899.3v9.56H857.17Z"/><path class="cls-1" d="M923.55,63.7A30.5,30.5,0,0,1,911.45,52,33.61,33.61,0,0,1,907,34.71a33.62,33.62,0,0,1,4.41-17.29,30.84,30.84,0,0,1,12.1-11.74,37.43,37.43,0,0,1,34.4,0,30.86,30.86,0,0,1,12.1,11.74,33.63,33.63,0,0,1,4.41,17.29A33.38,33.38,0,0,1,970.05,52,30.93,30.93,0,0,1,958,63.65a35.29,35.29,0,0,1-17.15,4.19A35.78,35.78,0,0,1,923.55,63.7Zm28.35-9.1a20.59,20.59,0,0,0,8-7.92,23.59,23.59,0,0,0,3-12,23.68,23.68,0,0,0-2.91-11.87,20.61,20.61,0,0,0-7.92-8,22.41,22.41,0,0,0-11.19-2.82,22.66,22.66,0,0,0-11.24,2.82,20.5,20.5,0,0,0-8,8,23.67,23.67,0,0,0-2.91,11.88,23.58,23.58,0,0,0,3,12,20.48,20.48,0,0,0,8,7.92,22.74,22.74,0,0,0,11.15,2.78A22.49,22.49,0,0,0,951.9,54.6Z"/><path class="cls-1" d="M1004,63.79a29,29,0,0,1-12-11.56,34.77,34.77,0,0,1-4.28-17.52,34.77,34.77,0,0,1,4.28-17.52,29.3,29.3,0,0,1,12-11.6A37.36,37.36,0,0,1,1021.7,1.5,46.76,46.76,0,0,1,1033.89,3a29.49,29.49,0,0,1,9.74,4.64v11a24.72,24.72,0,0,0-9.19-5,41.1,41.1,0,0,0-11.74-1.55,25.3,25.3,0,0,0-11.87,2.78,21,21,0,0,0-8.42,7.92,22.76,22.76,0,0,0-3.09,12,24,24,0,0,0,2.91,12.06,19.94,19.94,0,0,0,8.1,7.92,24.67,24.67,0,0,0,11.83,2.78,24.94,24.94,0,0,0,11.56-2.37V40.81H1023V31.62h22.29V61.29q-8.46,6.55-23.57,6.55A37.7,37.7,0,0,1,1004,63.79Z"/><path class="cls-1" d="M1076.34,63.7A30.5,30.5,0,0,1,1064.24,52a33.61,33.61,0,0,1-4.41-17.29,33.62,33.62,0,0,1,4.41-17.29,30.84,30.84,0,0,1,12.1-11.74,37.43,37.43,0,0,1,34.4,0,30.86,30.86,0,0,1,12.1,11.74,33.63,33.63,0,0,1,4.41,17.29A33.38,33.38,0,0,1,1122.84,52a30.93,30.93,0,0,1-12.1,11.69,35.29,35.29,0,0,1-17.15,4.19A35.78,35.78,0,0,1,1076.34,63.7Zm28.35-9.1a20.59,20.59,0,0,0,8-7.92,23.59,23.59,0,0,0,3-12,23.68,23.68,0,0,0-2.91-11.87,20.61,20.61,0,0,0-7.92-8,22.41,22.41,0,0,0-11.19-2.82,22.66,22.66,0,0,0-11.24,2.82,20.5,20.5,0,0,0-8,8,23.67,23.67,0,0,0-2.91,11.88,23.58,23.58,0,0,0,3,12,20.48,20.48,0,0,0,8,7.92,22.74,22.74,0,0,0,11.15,2.78A22.49,22.49,0,0,0,1104.69,54.6Z"/><path class="cls-1" d="M1148.59,66.79a36.36,36.36,0,0,1-9.05-2.78V54.1a43.31,43.31,0,0,0,9.56,3.28,46,46,0,0,0,9.83,1.09q6.1,0,9.28-2.28a7.29,7.29,0,0,0,3.19-6.28,7.4,7.4,0,0,0-1.46-4.69,12.31,12.31,0,0,0-4.28-3.28q-2.82-1.41-8.64-3.69-8.92-3.64-12.92-8.1a16,16,0,0,1-4-11.1,15.56,15.56,0,0,1,2.82-9.19,18.14,18.14,0,0,1,7.92-6.19,29.57,29.57,0,0,1,11.74-2.18,48.76,48.76,0,0,1,9.69.86A40.4,40.4,0,0,1,1180.58,5V14.7a36.5,36.5,0,0,0-16-3.82q-5.82,0-9,2.14a6.87,6.87,0,0,0-3.19,6.05,7,7,0,0,0,1.46,4.6,11.87,11.87,0,0,0,3.87,3q2.41,1.23,8.69,3.87a55.24,55.24,0,0,1,10.05,5.19,17.49,17.49,0,0,1,5.55,6,17.17,17.17,0,0,1,1.87,8.33q0,8.46-6.1,13.15t-18,4.69A59.67,59.67,0,0,1,1148.59,66.79Z"/></g></g></svg>