<svg xmlns="http://www.w3.org/2000/svg" viewBox="0 0 333.75 43.26"><defs><style>.cls-1{fill:#fff;}</style></defs><title>name</title><g id="Layer_2" data-name="Layer 2"><g id="Layer_1-2" data-name="Layer 1"><path class="cls-1" d="M12,4.63a11.69,11.69,0,0,1,8.43,3,10.86,10.86,0,0,1,3.14,8.24,11.84,11.84,0,0,1-4,9,13.65,13.65,0,0,1-9.7,3.72H6.72l.66,14.11H0L.66,29.26,0,4.63Zm-2,5.57H7.27l-.39,13h3.75a5.25,5.25,0,0,0,4.27-1.82,7.88,7.88,0,0,0,1.52-5.18Q16.42,10.19,10,10.19Z"/><path class="cls-1" d="M30.33,40.58A7.84,7.84,0,0,1,31.46,29a12,12,0,0,1,7.77-2.56H43v-.94q0-2.7-1.1-3.69t-4.13-1a10.65,10.65,0,0,0-3,.52,23.73,23.73,0,0,0-3.88,1.63l-1.6-4.35a27.58,27.58,0,0,1,5.76-3,16.15,16.15,0,0,1,5.59-1.32q8.65,0,8.65,8.38v10.8a15.47,15.47,0,0,0,1.93,6.89l-5.84,2.48a30.1,30.1,0,0,1-2-4.74q-3,4.57-7.66,4.57A7.2,7.2,0,0,1,30.33,40.58ZM38,37q2.2,0,5-2.26V31.08a22.49,22.49,0,0,0-4.74-.66q-3.47,0-3.47,3.09a3.65,3.65,0,0,0,.88,2.56A3,3,0,0,0,38,37Z"/><path class="cls-1" d="M65.9,42.65a6.32,6.32,0,0,1-4.82-2,7.2,7.2,0,0,1-1.85-5.15l.33-6.34L59,16l7.38-1.38-.72,16.75a5.67,5.67,0,0,0,.85,3.47,3.23,3.23,0,0,0,2.73,1.1,11.69,11.69,0,0,0,5.18-1.87V30.75l-.61-14.49,7.44-1.38-.66,13.78.06,4.52a15.59,15.59,0,0,0,1.82,7.11L76.7,42.82a22.5,22.5,0,0,1-2.2-5.73Q69.54,42.65,65.9,42.65Z"/><path class="cls-1" d="M98.25,0l-.72,28.32.61,12.95L90.7,42.65l.66-13.39L90.7,1.38Z"/><path class="cls-1" d="M130.81,28h-3.14v.33l.66,14.33h-7.38l.66-13.39-.66-24.63h12a12,12,0,0,1,8.43,2.87,9.8,9.8,0,0,1,3.14,7.6,12.06,12.06,0,0,1-1.85,6.53,13.22,13.22,0,0,1-5,4.66l9.59,13.56-6.67,3.42L132,27.94A8.84,8.84,0,0,1,130.81,28Zm.11-17.8h-2.7l-.39,12.45h3.75a5.25,5.25,0,0,0,4.27-1.82,7.88,7.88,0,0,0,1.52-5.18Q137.37,10.19,130.92,10.19Z"/><path class="cls-1" d="M153.4,39a4.36,4.36,0,0,1,1.29-3.11,4.16,4.16,0,0,1,3.11-1.35q3.58,0,3.58,3.64a4.87,4.87,0,0,1-1.29,3.47,4,4,0,0,1-3,1.38,3.36,3.36,0,0,1-2.7-1.13A4.3,4.3,0,0,1,153.4,39Z"/><path class="cls-1" d="M211.7,4.52,211,28.32l.61,13.11-6.5,1.38L188.67,16.26V28.32l.77,14.33h-6.89l.66-13.39-.66-24.47,6.61-.33,16.37,26.95L205,5.35Z"/><path class="cls-1" d="M224.76,19.18q3.8-4.9,8.9-4.9a9.9,9.9,0,0,1,7.94,3.31,13,13,0,0,1,2.84,8.76,19.42,19.42,0,0,1-3.66,12.1,11.16,11.16,0,0,1-9.23,4.82A9.62,9.62,0,0,1,224,39.81a12.72,12.72,0,0,1-3-8.68A18.93,18.93,0,0,1,224.76,19.18Zm13.5,10q0-8-5.46-8-5.68,0-5.68,7.49a10.25,10.25,0,0,0,1.6,6.12,5,5,0,0,0,4.22,2.2,4.47,4.47,0,0,0,4-2A10.42,10.42,0,0,0,238.26,29.2Z"/><path class="cls-1" d="M261.85,35.76h.72l1.82-7.55,3-13.61,6.83.83-4.13,13.67L266.58,42l-9.42.83-3.25-13.39-4-13.39,7.49-1.38,2.37,12.12Z"/><path class="cls-1" d="M281.32,40.58A7.84,7.84,0,0,1,282.45,29a12,12,0,0,1,7.77-2.56H294v-.94q0-2.7-1.1-3.69t-4.13-1a10.65,10.65,0,0,0-3,.52,23.73,23.73,0,0,0-3.88,1.63l-1.6-4.35a27.58,27.58,0,0,1,5.76-3,16.15,16.15,0,0,1,5.59-1.32q8.65,0,8.65,8.38v10.8a15.47,15.47,0,0,0,1.93,6.89l-5.84,2.48a30.1,30.1,0,0,1-2-4.74q-3,4.57-7.66,4.57A7.2,7.2,0,0,1,281.32,40.58ZM289,37q2.2,0,5-2.26V31.08a22.49,22.49,0,0,0-4.74-.66q-3.47,0-3.47,3.09a3.65,3.65,0,0,0,.88,2.56A3,3,0,0,0,289,37Z"/><path class="cls-1" d="M327.47,43.2,317.11,27.94v.39l.61,12.95-7.44,1.38.66-13.39-.66-27.88L317.83,0l-.72,26.61,11-12.07,5.18,3.53-9.64,9L333.75,39Z"/></g></g></svg>