<svg xmlns="http://www.w3.org/2000/svg" viewBox="0 0 1481.94 69.34"><defs><style>.cls-1{fill:none;stroke:#fff;stroke-miterlimit:10;stroke-width:3px;}</style></defs><title>print_title</title><g id="Layer_2" data-name="Layer 2"><g id="Layer_1-2" data-name="Layer 1"><path class="cls-1" d="M17.79,63.79a29,29,0,0,1-12-11.56A34.77,34.77,0,0,1,1.5,34.71,34.77,34.77,0,0,1,5.78,17.2a29.31,29.31,0,0,1,12-11.6A37.35,37.35,0,0,1,35.53,1.5q13.19,0,22,6.28v11q-7.92-6.73-21-6.73a26,26,0,0,0-12.28,2.78,19.89,19.89,0,0,0-8.19,7.87,23.8,23.8,0,0,0-2.91,12,23.5,23.5,0,0,0,3,12,20.17,20.17,0,0,0,8.24,7.87,25.8,25.8,0,0,0,12.19,2.78,39.44,39.44,0,0,0,12-1.68,28.62,28.62,0,0,0,9.74-5.41v11q-8.37,6.55-22.75,6.55A37.7,37.7,0,0,1,17.79,63.79Z"/><path class="cls-1" d="M87.09,63.7A30.5,30.5,0,0,1,75,52a33.61,33.61,0,0,1-4.41-17.29A33.62,33.62,0,0,1,75,17.42,30.84,30.84,0,0,1,87.09,5.69a37.43,37.43,0,0,1,34.4,0,30.86,30.86,0,0,1,12.1,11.74A33.64,33.64,0,0,1,138,34.71,33.39,33.39,0,0,1,133.59,52a30.93,30.93,0,0,1-12.1,11.69,35.29,35.29,0,0,1-17.15,4.19A35.78,35.78,0,0,1,87.09,63.7Zm28.35-9.1a20.58,20.58,0,0,0,8-7.92,23.59,23.59,0,0,0,3-12,23.69,23.69,0,0,0-2.91-11.87,20.61,20.61,0,0,0-7.92-8,22.41,22.41,0,0,0-11.19-2.82,22.65,22.65,0,0,0-11.24,2.82,20.5,20.5,0,0,0-8,8,23.67,23.67,0,0,0-2.91,11.88,23.57,23.57,0,0,0,3,12,20.48,20.48,0,0,0,8,7.92,22.75,22.75,0,0,0,11.15,2.78A22.49,22.49,0,0,0,115.43,54.6Z"/><path class="cls-1" d="M154.38,2.87h11.56V56.92h30.58v9.56H154.38Z"/><path class="cls-1" d="M211.07,2.87h11.56V56.92h30.58v9.56H211.07Z"/><path class="cls-1" d="M266.4,2.87h43v9.55H278V29.89h23.39v9.56H278V56.92h31.49v9.56h-43Z"/><path class="cls-1" d="M338,63.79a29,29,0,0,1-12-11.56,34.77,34.77,0,0,1-4.28-17.52A34.77,34.77,0,0,1,326,17.2a29.31,29.31,0,0,1,12-11.6A37.35,37.35,0,0,1,355.76,1.5q13.19,0,22,6.28v11q-7.92-6.73-21-6.73a26,26,0,0,0-12.28,2.78,19.89,19.89,0,0,0-8.19,7.87,23.8,23.8,0,0,0-2.91,12,23.5,23.5,0,0,0,3,12,20.17,20.17,0,0,0,8.24,7.87,25.8,25.8,0,0,0,12.19,2.78,39.44,39.44,0,0,0,12-1.68,28.62,28.62,0,0,0,9.74-5.41v11q-8.37,6.55-22.75,6.55A37.7,37.7,0,0,1,338,63.79Z"/><path class="cls-1" d="M410,12.42H390.8V2.87h50v9.55h-19.2V66.47H410Z"/><path class="cls-1" d="M455.32,2.87h11.56V66.47H455.32Z"/><path class="cls-1" d="M499.77,63.7A30.5,30.5,0,0,1,487.67,52a33.61,33.61,0,0,1-4.41-17.29,33.62,33.62,0,0,1,4.41-17.29,30.84,30.84,0,0,1,12.1-11.74,37.43,37.43,0,0,1,34.4,0,30.86,30.86,0,0,1,12.1,11.74,33.64,33.64,0,0,1,4.41,17.29A33.39,33.39,0,0,1,546.27,52a30.93,30.93,0,0,1-12.1,11.69A35.29,35.29,0,0,1,517,67.84,35.78,35.78,0,0,1,499.77,63.7Zm28.35-9.1a20.58,20.58,0,0,0,8-7.92,23.59,23.59,0,0,0,3-12,23.69,23.69,0,0,0-2.91-11.87,20.61,20.61,0,0,0-7.92-8A22.41,22.41,0,0,0,517,12.06a22.65,22.65,0,0,0-11.24,2.82,20.5,20.5,0,0,0-8,8,23.67,23.67,0,0,0-2.91,11.88,23.57,23.57,0,0,0,3,12,20.48,20.48,0,0,0,8,7.92A22.75,22.75,0,0,0,517,57.37,22.49,22.49,0,0,0,528.12,54.6Z"/><path class="cls-1" d="M567.06,2.87H578l29.76,44.32V2.87H619.3V66.47H608.38L578.62,22.07V66.47H567.06Z"/><path class="cls-1" d="M692.23,63.7A30.5,30.5,0,0,1,680.13,52a33.61,33.61,0,0,1-4.41-17.29,33.62,33.62,0,0,1,4.41-17.29,30.84,30.84,0,0,1,12.1-11.74,37.43,37.43,0,0,1,34.4,0,30.86,30.86,0,0,1,12.1,11.74,33.64,33.64,0,0,1,4.41,17.29A33.39,33.39,0,0,1,738.73,52a30.93,30.93,0,0,1-12.1,11.69,35.29,35.29,0,0,1-17.15,4.19A35.78,35.78,0,0,1,692.23,63.7Zm28.35-9.1a20.58,20.58,0,0,0,8-7.92,23.59,23.59,0,0,0,3-12,23.69,23.69,0,0,0-2.91-11.87,20.61,20.61,0,0,0-7.92-8,22.41,22.41,0,0,0-11.19-2.82,22.65,22.65,0,0,0-11.24,2.82,20.5,20.5,0,0,0-8,8,23.67,23.67,0,0,0-2.91,11.88,23.57,23.57,0,0,0,3,12,20.48,20.48,0,0,0,8,7.92,22.75,22.75,0,0,0,11.15,2.78A22.49,22.49,0,0,0,720.58,54.6Z"/><path class="cls-1" d="M759.53,2.87h43v9.65H771.08V30.35h23.39V39H771.08V66.47H759.53Z"/><path class="cls-1" d="M857.17,2.87h25.48q10.46,0,16.79,5.55t6.32,15.2q0,10-6.28,15.24t-16.93,5.23H868.72V66.47H857.17Zm24,31.67q13,0,13-10.92,0-11.19-13-11.19H868.72V34.53Z"/><path class="cls-1" d="M920.32,2.87h26.57q10.56,0,16.29,5.19t5.73,15A20.19,20.19,0,0,1,965.46,35a18.75,18.75,0,0,1-9.83,7l12.92,24.48H956.72l-12.29-23.3H931.88v23.3H920.32ZM944.8,33.62A14.6,14.6,0,0,0,953.9,31q3.46-2.64,3.46-7.92,0-10.65-12.56-10.65H931.88v21.2Z"/><path class="cls-1" d="M985.29,2.87h11.56V66.47H985.29Z"/><path class="cls-1" d="M1015,2.87H1026l29.76,44.32V2.87h11.56V66.47h-10.92l-29.76-44.41V66.47H1015Z"/><path class="cls-1" d="M1101,12.42h-19.2V2.87h50v9.55h-19.2V66.47H1101Z"/><path class="cls-1" d="M1184.58,2.87h12l12.65,45,12.47-45h8.92l12.47,45,12.65-45h12l-18.11,63.61h-10.74l-12.74-44.23-12.74,44.23h-10.74Z"/><path class="cls-1" d="M1292.91,63.7A30.5,30.5,0,0,1,1280.81,52a33.61,33.61,0,0,1-4.41-17.29,33.62,33.62,0,0,1,4.41-17.29,30.84,30.84,0,0,1,12.1-11.74,37.43,37.43,0,0,1,34.4,0,30.86,30.86,0,0,1,12.1,11.74,33.63,33.63,0,0,1,4.41,17.29A33.38,33.38,0,0,1,1339.42,52a30.93,30.93,0,0,1-12.1,11.69,35.29,35.29,0,0,1-17.15,4.19A35.78,35.78,0,0,1,1292.91,63.7Zm28.35-9.1a20.59,20.59,0,0,0,8-7.92,23.59,23.59,0,0,0,3-12,23.68,23.68,0,0,0-2.91-11.87,20.61,20.61,0,0,0-7.92-8,22.41,22.41,0,0,0-11.19-2.82,22.66,22.66,0,0,0-11.24,2.82,20.5,20.5,0,0,0-8,8A23.67,23.67,0,0,0,1288,34.71a23.58,23.58,0,0,0,3,12,20.48,20.48,0,0,0,8,7.92,22.74,22.74,0,0,0,11.15,2.78A22.49,22.49,0,0,0,1321.26,54.6Z"/><path class="cls-1" d="M1360.21,2.87h26.57q10.56,0,16.29,5.19t5.73,15A20.19,20.19,0,0,1,1405.34,35a18.75,18.75,0,0,1-9.83,7l12.92,24.48h-11.83l-12.29-23.3h-12.56v23.3h-11.56Zm24.48,30.76a14.6,14.6,0,0,0,9.1-2.64q3.46-2.64,3.46-7.92,0-10.65-12.56-10.65h-12.92v21.2Z"/><path class="cls-1" d="M1425.18,2.87h11.56V31.71l26.12-28.85h13.83L1448.48,34l30,32.49h-13.83l-27.94-30.21V66.47h-11.56Z"/></g></g></svg>