<svg xmlns="http://www.w3.org/2000/svg" viewBox="0 0 1038.12 100.97"><defs><style>.cls-1{fill:#fff;}</style></defs><title>projects_1</title><g id="Layer_2" data-name="Layer 2"><g id="Layer_1-2" data-name="Layer 1"><path class="cls-1" d="M9.05,65.29A36.35,36.35,0,0,1,0,62.52V52.6a43.31,43.31,0,0,0,9.55,3.28A46,46,0,0,0,19.38,57q6.1,0,9.28-2.28a7.29,7.29,0,0,0,3.19-6.28,7.4,7.4,0,0,0-1.46-4.69,12.31,12.31,0,0,0-4.28-3.28Q23.3,39,17.47,36.76q-8.92-3.64-12.92-8.1a16,16,0,0,1-4-11.1A15.56,15.56,0,0,1,3.37,8.37a18.14,18.14,0,0,1,7.92-6.19A29.57,29.57,0,0,1,23,0a48.75,48.75,0,0,1,9.69.86A40.42,40.42,0,0,1,41,3.55V13.2A36.5,36.5,0,0,0,25,9.37q-5.82,0-9,2.14a6.87,6.87,0,0,0-3.18,6.05,7,7,0,0,0,1.46,4.6,11.87,11.87,0,0,0,3.87,3q2.41,1.23,8.69,3.87A55.25,55.25,0,0,1,36.9,34.22a17.49,17.49,0,0,1,5.55,6,17.16,17.16,0,0,1,1.87,8.33q0,8.46-6.1,13.15t-18,4.69A59.67,59.67,0,0,1,9.05,65.29Z"/><path class="cls-1" d="M60.7,1.37h43v9.55H72.25V28.39H95.64v9.56H72.25V55.42h31.49V65h-43Z"/><path class="cls-1" d="M119.21,1.37h11.56V55.42h30.58V65H119.21Z"/><path class="cls-1" d="M174.54,1.37h43v9.55H186.09V28.39h23.39v9.56H186.09V55.42h31.49V65h-43Z"/><path class="cls-1" d="M246.15,62.29a29,29,0,0,1-12-11.56,34.77,34.77,0,0,1-4.28-17.52,34.77,34.77,0,0,1,4.28-17.52,29.31,29.31,0,0,1,12-11.6A37.35,37.35,0,0,1,263.9,0q13.19,0,22,6.28v11q-7.92-6.73-21-6.73a26,26,0,0,0-12.28,2.78,19.89,19.89,0,0,0-8.19,7.87,23.8,23.8,0,0,0-2.91,12,23.5,23.5,0,0,0,3,12,20.17,20.17,0,0,0,8.24,7.87,25.8,25.8,0,0,0,12.19,2.78,39.44,39.44,0,0,0,12-1.68,28.62,28.62,0,0,0,9.74-5.41v11q-8.37,6.55-22.75,6.55A37.7,37.7,0,0,1,246.15,62.29Z"/><path class="cls-1" d="M318.13,10.92h-19.2V1.37h50v9.55h-19.2V65H318.13Z"/><path class="cls-1" d="M363.45,1.37h43v9.55H375V28.39h23.39v9.56H375V55.42h31.49V65h-43Z"/><path class="cls-1" d="M422,1.37h21.29a39.84,39.84,0,0,1,18,3.82A27.29,27.29,0,0,1,473,16.11a32.93,32.93,0,0,1,4.09,16.74q0,15.83-9.19,24T442.25,65H422Zm20.48,54.05q11.1,0,17.06-6t6-16.61a24,24,0,0,0-2.64-11.42,19,19,0,0,0-7.55-7.73,23.31,23.31,0,0,0-11.65-2.78h-10.1v44.5Z"/><path class="cls-1" d="M533.53,1.37H559q10.46,0,16.79,5.55t6.32,15.2q0,10-6.28,15.24t-16.93,5.23H545.08V65H533.53Zm24,31.67q13,0,13-10.92,0-11.19-13-11.19H545.08V33Z"/><path class="cls-1" d="M596.68,1.37h26.57q10.56,0,16.29,5.19t5.73,15a20.19,20.19,0,0,1-3.46,11.92,18.75,18.75,0,0,1-9.83,7L644.91,65H633.08L620.8,41.68H608.24V65H596.68Zm24.48,30.76a14.6,14.6,0,0,0,9.1-2.64q3.46-2.64,3.46-7.92,0-10.65-12.56-10.65H608.24v21.2Z"/><path class="cls-1" d="M675,62.2a30.5,30.5,0,0,1-12.1-11.69,33.61,33.61,0,0,1-4.41-17.29,33.62,33.62,0,0,1,4.41-17.29A30.84,30.84,0,0,1,675,4.19a37.43,37.43,0,0,1,34.4,0,30.86,30.86,0,0,1,12.1,11.74,33.63,33.63,0,0,1,4.41,17.29,33.38,33.38,0,0,1-4.41,17.24,30.93,30.93,0,0,1-12.1,11.69,35.29,35.29,0,0,1-17.15,4.19A35.78,35.78,0,0,1,675,62.2Zm28.35-9.1a20.59,20.59,0,0,0,8-7.92,23.59,23.59,0,0,0,3-12,23.68,23.68,0,0,0-2.91-11.87,20.61,20.61,0,0,0-7.92-8,22.41,22.41,0,0,0-11.19-2.82A22.66,22.66,0,0,0,681,13.38a20.5,20.5,0,0,0-8,8,23.67,23.67,0,0,0-2.91,11.88,23.58,23.58,0,0,0,3,12,20.48,20.48,0,0,0,8,7.92,22.74,22.74,0,0,0,11.15,2.78A22.49,22.49,0,0,0,703.33,53.1Z"/><path class="cls-1" d="M740.87,65.84a18.17,18.17,0,0,1-4.5-1.23V55a18.86,18.86,0,0,0,7.37,1.27q8.92,0,8.92-8.46V1.37h11.56v47q0,8.37-4.64,13.15t-13,4.78A34.16,34.16,0,0,1,740.87,65.84Z"/><path class="cls-1" d="M782.41,1.37h43v9.55H794V28.39h23.39v9.56H794V55.42h31.49V65h-43Z"/><path class="cls-1" d="M854,62.29a29,29,0,0,1-12-11.56,34.77,34.77,0,0,1-4.28-17.52A34.77,34.77,0,0,1,842,15.7a29.3,29.3,0,0,1,12-11.6A37.36,37.36,0,0,1,871.77,0q13.19,0,22,6.28v11q-7.92-6.73-21-6.73a26,26,0,0,0-12.29,2.78,19.89,19.89,0,0,0-8.19,7.87,23.8,23.8,0,0,0-2.91,12,23.51,23.51,0,0,0,3,12,20.17,20.17,0,0,0,8.24,7.87,25.8,25.8,0,0,0,12.19,2.78,39.44,39.44,0,0,0,12-1.68,28.61,28.61,0,0,0,9.74-5.41v11q-8.37,6.55-22.75,6.55A37.7,37.7,0,0,1,854,62.29Z"/><path class="cls-1" d="M926,10.92h-19.2V1.37h50v9.55h-19.2V65H926Z"/><path class="cls-1" d="M976.28,65.29a36.36,36.36,0,0,1-9.05-2.78V52.6a43.31,43.31,0,0,0,9.56,3.28A46,46,0,0,0,986.61,57q6.1,0,9.28-2.28a7.29,7.29,0,0,0,3.19-6.28,7.4,7.4,0,0,0-1.46-4.69,12.31,12.31,0,0,0-4.28-3.28q-2.82-1.41-8.64-3.69-8.92-3.64-12.92-8.1a16,16,0,0,1-4-11.1,15.56,15.56,0,0,1,2.82-9.19,18.14,18.14,0,0,1,7.92-6.19A29.57,29.57,0,0,1,990.25,0a48.76,48.76,0,0,1,9.69.86,40.4,40.4,0,0,1,8.33,2.68V13.2a36.5,36.5,0,0,0-16-3.82q-5.82,0-9,2.14a6.87,6.87,0,0,0-3.19,6.05,7,7,0,0,0,1.46,4.6,11.87,11.87,0,0,0,3.87,3q2.41,1.23,8.69,3.87a55.24,55.24,0,0,1,10.05,5.19,17.49,17.49,0,0,1,5.55,6,17.17,17.17,0,0,1,1.87,8.33q0,8.46-6.1,13.15t-18,4.69A59.67,59.67,0,0,1,976.28,65.29Z"/><path class="cls-1" d="M1027.88,30.8a5.93,5.93,0,0,1,0-8.46,6,6,0,0,1,10.24,4.23,6,6,0,0,1-10.24,4.23Zm0,30.94a5.93,5.93,0,1,1,4.23,1.77A5.78,5.78,0,0,1,1027.88,61.74Z"/><path class="cls-1" d="M.21,91.42H1038.06V101H.21Z"/></g></g></svg>