<svg xmlns="http://www.w3.org/2000/svg" viewBox="0 0 1500.94 66.34"><defs><style>.cls-1{fill:#fff;}</style></defs><title>slumberland_name</title><g id="Layer_2" data-name="Layer 2"><g id="Layer_1-2" data-name="Layer 1"><path class="cls-1" d="M9.05,65.29A36.35,36.35,0,0,1,0,62.52V52.6a43.31,43.31,0,0,0,9.55,3.28A46,46,0,0,0,19.38,57q6.1,0,9.28-2.28a7.29,7.29,0,0,0,3.19-6.28,7.4,7.4,0,0,0-1.46-4.69,12.31,12.31,0,0,0-4.28-3.28Q23.3,39,17.47,36.76q-8.92-3.64-12.92-8.1a16,16,0,0,1-4-11.1A15.56,15.56,0,0,1,3.37,8.37a18.14,18.14,0,0,1,7.92-6.19A29.57,29.57,0,0,1,23,0a48.75,48.75,0,0,1,9.69.86A40.42,40.42,0,0,1,41,3.55V13.2A36.5,36.5,0,0,0,25,9.37q-5.82,0-9,2.14a6.87,6.87,0,0,0-3.18,6.05,7,7,0,0,0,1.46,4.6,11.87,11.87,0,0,0,3.87,3q2.41,1.23,8.69,3.87A55.25,55.25,0,0,1,36.9,34.22a17.49,17.49,0,0,1,5.55,6,17.16,17.16,0,0,1,1.87,8.33q0,8.46-6.1,13.15t-18,4.69A59.67,59.67,0,0,1,9.05,65.29Z"/><path class="cls-1" d="M60.7,1.37H72.25V55.42h30.58V65H60.7Z"/><path class="cls-1" d="M120.62,59.29q-6.87-7.05-6.87-19.06V1.37h11.56v39q0,7.55,4.23,11.51t11.42,4q7.1,0,11.33-4t4.23-11.51v-39h11.56V40.22q0,12-6.83,19.06T141,66.34Q127.49,66.34,120.62,59.29Z"/><path class="cls-1" d="M185.82,1.37H197.1L218.4,48,239.69,1.37H251V65H240.06V23.66L221.13,65h-5.46L196.74,23.66V65H185.82Z"/><path class="cls-1" d="M269.18,1.37h30.21q8.74,0,13.6,4.37t4.87,12.74a15.46,15.46,0,0,1-2.14,8.05A14.56,14.56,0,0,1,310,32Q320,35.31,320,46.68a18.29,18.29,0,0,1-2.55,9.78,16.83,16.83,0,0,1-6.87,6.32,21,21,0,0,1-9.6,2.18H269.18Zm28.39,26.48a9,9,0,0,0,6.28-2.14q2.37-2.14,2.37-6.51,0-5-2.32-6.87T297,10.46H280.64V27.85Zm.73,28q4.82,0,7.42-2t2.59-7.1q0-5.09-2.73-7.37t-7.92-2.28h-17V55.87Z"/><path class="cls-1" d="M336.33,1.37h43v9.55H347.89V28.39h23.39v9.56H347.89V55.42h31.49V65h-43Z"/><path class="cls-1" d="M394.84,1.37h26.57q10.55,0,16.29,5.19t5.73,15A20.19,20.19,0,0,1,440,33.49a18.76,18.76,0,0,1-9.83,7L443.07,65H431.24L419,41.68H406.4V65H394.84Zm24.48,30.76a14.6,14.6,0,0,0,9.1-2.64q3.46-2.64,3.46-7.92,0-10.65-12.56-10.65H406.4v21.2Z"/><path class="cls-1" d="M459.82,1.37h11.56V55.42H502V65H459.82Z"/><path class="cls-1" d="M538.81,1.37H550L575.39,65H563.65l-5.82-14.65H530.89L525.16,65H513.33Zm15.83,39.4-10.28-27-10.28,27Z"/><path class="cls-1" d="M591.77,1.37h10.92l29.76,44.32V1.37H644V65H633.08L603.32,20.57V65H591.77Z"/><path class="cls-1" d="M662.2,1.37h21.29a39.84,39.84,0,0,1,18,3.82,27.29,27.29,0,0,1,11.74,10.92,32.93,32.93,0,0,1,4.09,16.74q0,15.83-9.19,24T682.49,65H662.2Zm20.48,54.05q11.1,0,17.06-6t6-16.61a24,24,0,0,0-2.64-11.42,19,19,0,0,0-7.55-7.73,23.31,23.31,0,0,0-11.65-2.78h-10.1v44.5Z"/><path class="cls-1" d="M773.76,1.37h11.56V55.42H815.9V65H773.76Z"/><path class="cls-1" d="M852.75,1.37h11.19L889.33,65H877.6l-5.82-14.65H844.84L839.1,65H827.27Zm15.83,39.4-10.28-27L848,40.77Z"/><path class="cls-1" d="M905.71,1.37h10.92l29.76,44.32V1.37h11.56V65H947L917.27,20.57V65H905.71Z"/><path class="cls-1" d="M976.15,1.37h21.29a39.84,39.84,0,0,1,18,3.82,27.29,27.29,0,0,1,11.74,10.92,32.93,32.93,0,0,1,4.1,16.74q0,15.83-9.19,24T996.44,65H976.15Zm20.47,54.05q11.1,0,17.06-6t6-16.61A24,24,0,0,0,1017,21.43a19,19,0,0,0-7.55-7.73,23.31,23.31,0,0,0-11.65-2.78H987.7v44.5Z"/><path class="cls-1" d="M1047.67,1.37h11.56V65h-11.56Z"/><path class="cls-1" d="M1077.43,1.37h10.92l29.76,44.32V1.37h11.56V65h-10.92L1089,20.57V65h-11.56Z"/><path class="cls-1" d="M1162.33,62.29a29,29,0,0,1-12-11.56A34.77,34.77,0,0,1,1146,33.21a34.77,34.77,0,0,1,4.28-17.52,29.3,29.3,0,0,1,12-11.6A37.36,37.36,0,0,1,1180.07,0a46.76,46.76,0,0,1,12.19,1.46A29.49,29.49,0,0,1,1202,6.1v11a24.72,24.72,0,0,0-9.19-5,41.1,41.1,0,0,0-11.74-1.55,25.3,25.3,0,0,0-11.87,2.78,21,21,0,0,0-8.42,7.92,22.76,22.76,0,0,0-3.09,12,24,24,0,0,0,2.91,12.06,19.94,19.94,0,0,0,8.1,7.92A24.67,24.67,0,0,0,1180.53,56a24.94,24.94,0,0,0,11.56-2.37V39.31h-10.74V30.12h22.29V59.79q-8.46,6.55-23.57,6.55A37.7,37.7,0,0,1,1162.33,62.29Z"/><path class="cls-1" d="M1260.06,1.37h25.48q10.46,0,16.79,5.55t6.32,15.2q0,10-6.28,15.24t-16.93,5.23h-13.83V65h-11.56Zm24,31.67q13,0,13-10.92,0-11.19-13-11.19h-12.47V33Z"/><path class="cls-1" d="M1337.78,1.37H1349L1374.36,65h-11.74l-5.82-14.65h-26.94L1324.13,65H1312.3Zm15.83,39.4-10.28-27-10.28,27Z"/><path class="cls-1" d="M1400.2,62.29a29,29,0,0,1-12-11.56,34.77,34.77,0,0,1-4.28-17.52,34.77,34.77,0,0,1,4.28-17.52,29.3,29.3,0,0,1,12-11.6A37.36,37.36,0,0,1,1417.95,0a46.76,46.76,0,0,1,12.19,1.46,29.49,29.49,0,0,1,9.74,4.64v11a24.72,24.72,0,0,0-9.19-5,41.1,41.1,0,0,0-11.74-1.55,25.3,25.3,0,0,0-11.87,2.78,21,21,0,0,0-8.42,7.92,22.76,22.76,0,0,0-3.09,12,24,24,0,0,0,2.91,12.06,19.94,19.94,0,0,0,8.1,7.92A24.67,24.67,0,0,0,1418.4,56,24.94,24.94,0,0,0,1430,53.6V39.31h-10.74V30.12h22.29V59.79q-8.46,6.55-23.57,6.55A37.7,37.7,0,0,1,1400.2,62.29Z"/><path class="cls-1" d="M1457.9,1.37h43v9.55h-31.49V28.39h23.39v9.56h-23.39V55.42h31.49V65h-43Z"/></g></g></svg>