<svg xmlns="http://www.w3.org/2000/svg" viewBox="0 0 1503.94 69.34"><defs><style>.cls-1{fill:#fff;}</style></defs><title>slumberland_title</title><g id="Layer_2" data-name="Layer 2"><g id="Layer_1-2" data-name="Layer 1"><path class="cls-1" d="M21.7,69.34a61.47,61.47,0,0,1-11.43-1.07,38,38,0,0,1-9.43-2.9L0,65V51.71l2.15,1a42,42,0,0,0,9.22,3.16A44.71,44.71,0,0,0,20.88,57c3.73,0,6.56-.67,8.41-2a5.82,5.82,0,0,0,2.56-5.06,5.89,5.89,0,0,0-1.14-3.77,10.91,10.91,0,0,0-3.77-2.86c-1.83-.91-4.69-2.13-8.52-3.63-6.15-2.51-10.68-5.36-13.49-8.5A17.51,17.51,0,0,1,.55,19.06,17.11,17.11,0,0,1,3.64,9a19.7,19.7,0,0,1,8.55-6.7A31.2,31.2,0,0,1,24.52,0a50.48,50.48,0,0,1,10,.9,42.1,42.1,0,0,1,8.64,2.78l.89.4v13l-2.15-1a35.19,35.19,0,0,0-15.36-3.67c-3.56,0-6.31.63-8.17,1.88a5.41,5.41,0,0,0-2.52,4.81,5.52,5.52,0,0,0,1.12,3.64,10.44,10.44,0,0,0,3.39,2.62c1.56.8,4.45,2.08,8.59,3.82a56.94,56.94,0,0,1,10.33,5.33,19.06,19.06,0,0,1,6,6.47,18.71,18.71,0,0,1,2,9c0,6.11-2.25,10.93-6.68,14.34S30,69.34,21.7,69.34ZM3,63.06a37.51,37.51,0,0,0,7.83,2.26h0a58.48,58.48,0,0,0,10.87,1c7.57,0,13.33-1.47,17.1-4.38s5.51-6.76,5.51-12a15.77,15.77,0,0,0-1.68-7.61A16.08,16.08,0,0,0,37.55,37a54,54,0,0,0-9.78-5C23.5,30.12,20.62,28.84,19,28a13.39,13.39,0,0,1-4.35-3.39,8.49,8.49,0,0,1-1.8-5.55,8.32,8.32,0,0,1,3.85-7.3c2.37-1.59,5.68-2.39,9.85-2.39a37.52,37.52,0,0,1,14.52,3V6a38.85,38.85,0,0,0-7.13-2.2A47.47,47.47,0,0,0,24.52,3,28.22,28.22,0,0,0,13.37,5.06a16.74,16.74,0,0,0-7.28,5.67,14,14,0,0,0-2.55,8.33,14.42,14.42,0,0,0,3.62,10.1c2.5,2.79,6.67,5.39,12.37,7.71,3.89,1.52,6.84,2.78,8.75,3.73a13.82,13.82,0,0,1,4.79,3.69,8.89,8.89,0,0,1,1.77,5.61A8.75,8.75,0,0,1,31,57.41C28.66,59.11,25.25,60,20.88,60a47.69,47.69,0,0,1-10.15-1.13A45.3,45.3,0,0,1,3,56.41Z"/><path class="cls-1" d="M105.83,68H60.7V1.37H75.25V55.42h30.58ZM63.7,65h39.13V58.42H72.25V4.37H63.7Z"/><path class="cls-1" d="M142.46,69.34c-9.36,0-16.56-2.53-21.41-7.51h0c-4.84-5-7.3-11.73-7.3-20.11V1.37h14.56V41.9c0,4.64,1.23,8.05,3.76,10.42s6,3.55,10.4,3.55,7.75-1.16,10.3-3.55,3.76-5.77,3.76-10.42V1.37h14.56V41.72c0,8.38-2.44,15.14-7.25,20.11S151.82,69.34,142.46,69.34Zm-25.71-65V41.72c0,7.57,2.17,13.63,6.44,18h0c4.27,4.38,10.75,6.6,19.26,6.6s15-2.22,19.21-6.6,6.4-10.45,6.4-18V4.37h-8.56V41.9c0,5.44-1.58,9.68-4.71,12.61s-7.25,4.36-12.35,4.36-9.35-1.47-12.45-4.36-4.71-7.16-4.71-12.61V4.37Z"/><path class="cls-1" d="M254,68H240.06V32L223.59,68h-7.39L199.74,32V68H185.82V1.37h13.75L219.9,45.85,240.23,1.37H254Zm-10.92-3H251V4.37h-8.82L219.9,53.07,197.64,4.37h-8.82V65h7.92V18.29L218.13,65h3.53l21.39-46.69Z"/><path class="cls-1" d="M302.44,68H269.18V1.37h31.71c6.18,0,11.09,1.6,14.61,4.75S320.86,14,320.86,20a17,17,0,0,1-2.35,8.82,16.41,16.41,0,0,1-3.81,4.43C320.18,36,323,41,323,48.18a19.86,19.86,0,0,1-2.77,10.57,18.39,18.39,0,0,1-7.47,6.88A22.55,22.55,0,0,1,302.44,68Zm-30.26-3h30.26a19.58,19.58,0,0,0,8.92-2,15.43,15.43,0,0,0,6.27-5.77,16.91,16.91,0,0,0,2.33-9c0-6.92-2.91-11.25-8.89-13.23l-3.31-1.09,3.07-1.65a13.15,13.15,0,0,0,5.11-5A14,14,0,0,0,317.86,20c0-5.18-1.43-9-4.37-11.62s-7.19-4-12.6-4H272.18Zm27.62-6.1H280.64V37.13h18.52c3.8,0,6.79.88,8.88,2.62s3.27,4.68,3.27,8.52-1.07,6.66-3.18,8.29S303.34,58.87,299.8,58.87Zm-16.15-3H299.8c2.86,0,5-.57,6.5-1.69s2-3,2-5.91-.74-5-2.19-6.22-3.88-1.93-7-1.93H283.64Zm15.43-25H280.64V10.47h17.88c3.37,0,6,.74,7.81,2.2s2.88,4.24,2.88,8c0,3.34-1,5.9-2.86,7.62A10.5,10.5,0,0,1,299.07,30.85Zm-15.43-3h15.43a7.51,7.51,0,0,0,5.27-1.75c1.26-1.14,1.87-2.9,1.87-5.39,0-2.84-.59-4.76-1.76-5.7s-3.26-1.53-5.93-1.53H283.64Z"/><path class="cls-1" d="M382.38,68h-46V1.37h46V13.92H350.89V28.39h23.39V40.95H350.89V55.42h31.49Zm-43-3h40V58.42H347.89V37.95h23.39V31.39H347.89V10.92h31.49V4.37h-40Z"/><path class="cls-1" d="M447.06,68H431.84l-12.28-23.3H409.4V68H394.84V1.37h28.07c7.39,0,13.21,1.88,17.29,5.57s6.23,9.16,6.23,16.13a21.76,21.76,0,0,1-3.73,12.79,19.84,19.84,0,0,1-8.93,7Zm-13.41-3h8.44L429.5,41.12l1.69-.55a17.38,17.38,0,0,0,9.07-6.44,18.82,18.82,0,0,0,3.18-11.06c0-6.08-1.76-10.76-5.24-13.9s-8.66-4.8-15.28-4.8H397.84V65h8.56V41.68h15ZM420.82,35.12H406.4V10.92h14.42c11.62,0,14.06,6.61,14.06,12.15,0,4-1.36,7.06-4,9.11A16.11,16.11,0,0,1,420.82,35.12Zm-11.42-3h11.42A13.22,13.22,0,0,0,429,29.79c1.93-1.47,2.87-3.67,2.87-6.72,0-3.93-1.15-9.15-11.06-9.15H409.4Z"/><path class="cls-1" d="M505,68H459.82V1.37h14.56V55.42H505Zm-42.13-3H502V58.42H471.37V4.37h-8.56Z"/><path class="cls-1" d="M579.1,68h-15l-5.82-14.65H533.41L527.68,68H512.61L539.29,1.37h13.22Zm-12.94-3h8.51L550.48,4.37h-9.16L517,65h8.59l5.73-14.65h29Zm-7.85-21.21H533.4L545.86,11Zm-20.57-3H554l-8.11-21.31Z"/><path class="cls-1" d="M647,68H633.78L606.32,27V68H591.77V1.37H605l27.46,40.89V1.37H647Zm-11.62-3H644V4.37h-8.56V52.11L603.39,4.37h-8.62V65h8.56V17.13Z"/><path class="cls-1" d="M684,68H662.2V1.37H685a41.5,41.5,0,0,1,18.69,4,28.89,28.89,0,0,1,12.37,11.51,34.56,34.56,0,0,1,4.3,17.49c0,11-3.26,19.4-9.7,25.1S695.3,68,684,68ZM665.2,65H684c10.55,0,18.85-2.61,24.67-7.77s8.69-12.8,8.69-22.86a31.61,31.61,0,0,0-3.89-16A25.94,25.94,0,0,0,702.34,8,38.55,38.55,0,0,0,685,4.37H665.2Zm19-6.56H673.76V10.92h11.6a24.89,24.89,0,0,1,12.39,3,20.51,20.51,0,0,1,8.14,8.34,25.54,25.54,0,0,1,2.82,12.13c0,7.48-2.15,13.42-6.4,17.67S692,58.42,684.17,58.42Zm-7.42-3h7.42c7,0,12.34-1.86,16-5.52S705.7,41,705.7,34.35a22.59,22.59,0,0,0-2.46-10.72,17.55,17.55,0,0,0-7-7.13,21.94,21.94,0,0,0-10.91-2.58h-8.6Z"/><path class="cls-1" d="M818.9,68H773.76V1.37h14.56V55.42H818.9Zm-42.13-3H815.9V58.42H785.32V4.37h-8.56Z"/><path class="cls-1" d="M893,68h-15l-5.82-14.65H847.36L841.63,68H826.56L853.24,1.37h13.23Zm-12.94-3h8.51L864.43,4.37h-9.16L831,65h8.59l5.73-14.65h29Zm-7.85-21.21H847.34L859.8,11Zm-20.57-3h16.21L859.8,19.46Z"/><path class="cls-1" d="M960.95,68H947.73L920.27,27V68H905.71V1.37h13.22l27.46,40.89V1.37h14.56Zm-11.62-3h8.62V4.37h-8.56V52.11L917.33,4.37h-8.62V65h8.56V17.13Z"/><path class="cls-1" d="M997.94,68H976.15V1.37h22.79a41.5,41.5,0,0,1,18.69,4A28.88,28.88,0,0,1,1030,16.86a34.55,34.55,0,0,1,4.3,17.49c0,11-3.26,19.4-9.7,25.1S1009.25,68,997.94,68Zm-18.79-3h18.79c10.55,0,18.85-2.61,24.67-7.77s8.69-12.8,8.69-22.86a31.61,31.61,0,0,0-3.9-16A25.93,25.93,0,0,0,1016.29,8a38.55,38.55,0,0,0-17.35-3.66H979.15Zm19-6.56H987.7V10.92h11.6a24.88,24.88,0,0,1,12.39,3,20.51,20.51,0,0,1,8.14,8.34,25.54,25.54,0,0,1,2.81,12.13c0,7.48-2.15,13.42-6.4,17.67S1005.9,58.42,998.12,58.42Zm-7.42-3h7.42c7,0,12.34-1.86,16-5.52s5.52-8.89,5.52-15.55a22.59,22.59,0,0,0-2.46-10.72,17.56,17.56,0,0,0-7-7.13,21.94,21.94,0,0,0-10.91-2.58h-8.6Z"/><path class="cls-1" d="M1062.23,68h-14.56V1.37h14.56Zm-11.56-3h8.56V4.37h-8.56Z"/><path class="cls-1" d="M1132.66,68h-13.22L1092,27V68h-14.56V1.37h13.22l27.46,40.89V1.37h14.56ZM1121,65h8.62V4.37h-8.56V52.11L1089,4.37h-8.62V65H1089V17.13Z"/><path class="cls-1" d="M1181.57,69.34a39.35,39.35,0,0,1-18.44-4.22A30.62,30.62,0,0,1,1150.51,53,36.41,36.41,0,0,1,1146,34.72a36.4,36.4,0,0,1,4.47-18.26,30.92,30.92,0,0,1,12.61-12.19A39,39,0,0,1,1181.57,0a48.42,48.42,0,0,1,12.59,1.51,31.11,31.11,0,0,1,10.23,4.88l.62.45v15l-2.48-2.14a23.34,23.34,0,0,0-8.64-4.7,39.78,39.78,0,0,0-11.31-1.48,23.93,23.93,0,0,0-11.18,2.61,19.57,19.57,0,0,0-7.83,7.36,21.39,21.39,0,0,0-2.88,11.19A22.67,22.67,0,0,0,1163.4,46a18.55,18.55,0,0,0,7.5,7.34A23.31,23.31,0,0,0,1182,56a24.74,24.74,0,0,0,10.06-1.81V42.31h-10.74V30.12h25.29V62l-.58.45C1200.18,67,1191.94,69.34,1181.57,69.34Zm0-66.34a36,36,0,0,0-17,3.92,28,28,0,0,0-11.41,11A33.46,33.46,0,0,0,1149,34.72a33.46,33.46,0,0,0,4.08,16.78,27.67,27.67,0,0,0,11.4,11h0a36.39,36.39,0,0,0,17,3.88c9.34,0,16.76-2,22.07-5.8V33.12h-19.29v6.19h10.74V56l-.81.42A26.52,26.52,0,0,1,1182,59a26.26,26.26,0,0,1-12.54-3,21.51,21.51,0,0,1-8.7-8.5,25.62,25.62,0,0,1-3.11-12.8A24.34,24.34,0,0,1,1161,22a22.52,22.52,0,0,1,9-8.47,26.9,26.9,0,0,1,12.57-2.95,42.77,42.77,0,0,1,12.17,1.61,26.56,26.56,0,0,1,7.26,3.41V8.37a28.2,28.2,0,0,0-8.63-4A45.44,45.44,0,0,0,1181.57,3Z"/><path class="cls-1" d="M1274.62,68h-14.56V1.37h27c7.32,0,13.3,2,17.78,5.92s6.83,9.47,6.83,16.33c0,7.11-2.29,12.62-6.82,16.39s-10.46,5.58-17.89,5.58h-12.33Zm-11.56-3h8.56V42.59h15.33c6.7,0,12.08-1.64,16-4.88s5.74-7.83,5.74-14.09c0-6-1.9-10.64-5.81-14.07s-9.23-5.18-15.8-5.18h-24ZM1285.59,36h-14V10.92h14c12,0,14.51,6.9,14.51,12.69S1297.58,36,1285.59,36Zm-11-3h11c10.32,0,11.51-5.38,11.51-9.42,0-6.61-3.66-9.69-11.51-9.69h-11Z"/><path class="cls-1" d="M1378.07,68h-15l-5.82-14.65h-24.89L1326.65,68h-15.07l26.68-66.61h13.23Zm-12.94-3h8.51L1349.45,4.37h-9.16L1316,65h8.59l5.73-14.65h29Zm-7.85-21.21h-24.92L1344.83,11Zm-20.57-3h16.21l-8.11-21.31Z"/><path class="cls-1" d="M1419.45,69.34A39.35,39.35,0,0,1,1401,65.12,30.62,30.62,0,0,1,1388.39,53a36.41,36.41,0,0,1-4.47-18.26,36.4,36.4,0,0,1,4.47-18.26A30.92,30.92,0,0,1,1401,4.27,39,39,0,0,1,1419.45,0,48.42,48.42,0,0,1,1432,1.51a31.11,31.11,0,0,1,10.23,4.88l.62.45v15l-2.48-2.14a23.34,23.34,0,0,0-8.64-4.7,39.78,39.78,0,0,0-11.31-1.48,23.93,23.93,0,0,0-11.18,2.61,19.57,19.57,0,0,0-7.83,7.36,21.39,21.39,0,0,0-2.88,11.19A22.67,22.67,0,0,0,1401.28,46a18.55,18.55,0,0,0,7.5,7.34A23.31,23.31,0,0,0,1419.9,56,24.74,24.74,0,0,0,1430,54.16V42.31h-10.74V30.12h25.29V62l-.58.45C1438,67,1429.81,69.34,1419.45,69.34Zm0-66.34a36,36,0,0,0-17,3.92,28,28,0,0,0-11.41,11,33.46,33.46,0,0,0-4.08,16.78A33.46,33.46,0,0,0,1391,51.49a27.67,27.67,0,0,0,11.4,11h0a36.39,36.39,0,0,0,17,3.88c9.34,0,16.76-2,22.07-5.8V33.12h-19.29v6.19H1433V56l-.81.42A26.52,26.52,0,0,1,1419.9,59a26.26,26.26,0,0,1-12.54-3,21.51,21.51,0,0,1-8.7-8.5,25.62,25.62,0,0,1-3.11-12.8A24.34,24.34,0,0,1,1398.87,22a22.52,22.52,0,0,1,9-8.47,26.9,26.9,0,0,1,12.57-2.95,42.77,42.77,0,0,1,12.17,1.61,26.56,26.56,0,0,1,7.26,3.41V8.37a28.2,28.2,0,0,0-8.63-4A45.44,45.44,0,0,0,1419.45,3Z"/><path class="cls-1" d="M1503.94,68h-46V1.37h46V13.92h-31.49V28.39h23.39V40.95h-23.39V55.42h31.49Zm-43-3h40V58.42h-31.49V37.95h23.39V31.39h-23.39V10.92h31.49V4.37h-40Z"/></g></g></svg>