<svg xmlns="http://www.w3.org/2000/svg" viewBox="0 0 1180.98 69.34"><defs><style>.cls-1{fill:none;stroke:#fff;stroke-miterlimit:10;stroke-width:3px;}</style></defs><title>snap_title</title><g id="Layer_2" data-name="Layer 2"><g id="Layer_1-2" data-name="Layer 1"><path class="cls-1" d="M20.7,12.42H1.5V2.87h50v9.55H32.26V66.47H20.7Z"/><path class="cls-1" d="M78.3,2.87H89.5l25.39,63.61H103.15L97.32,51.82H70.39L64.65,66.47H52.82Zm15.83,39.4-10.28-27-10.28,27Z"/><path class="cls-1" d="M131.26,2.87h26.57q10.55,0,16.29,5.19t5.73,15A20.19,20.19,0,0,1,176.4,35a18.76,18.76,0,0,1-9.83,7l12.92,24.48H167.66l-12.28-23.3H142.82v23.3H131.26Zm24.48,30.76a14.6,14.6,0,0,0,9.1-2.64q3.46-2.64,3.46-7.92,0-10.65-12.56-10.65H142.82v21.2Z"/><path class="cls-1" d="M209.34,63.79a29,29,0,0,1-12-11.56,34.77,34.77,0,0,1-4.28-17.52,34.77,34.77,0,0,1,4.28-17.52,29.31,29.31,0,0,1,12-11.6A37.35,37.35,0,0,1,227.09,1.5,46.76,46.76,0,0,1,239.28,3,29.49,29.49,0,0,1,249,7.6v11a24.71,24.71,0,0,0-9.19-5,41.1,41.1,0,0,0-11.74-1.55,25.31,25.31,0,0,0-11.88,2.78,21,21,0,0,0-8.42,7.92,22.75,22.75,0,0,0-3.09,12,24,24,0,0,0,2.91,12.06,19.94,19.94,0,0,0,8.1,7.92,24.67,24.67,0,0,0,11.83,2.78A24.94,24.94,0,0,0,239.1,55.1V40.81H228.36V31.62h22.29V61.29q-8.46,6.55-23.57,6.55A37.7,37.7,0,0,1,209.34,63.79Z"/><path class="cls-1" d="M267,2.87h43v9.55H278.59V29.89H302v9.56H278.59V56.92h31.49v9.56H267Z"/><path class="cls-1" d="M341.11,12.42h-19.2V2.87h50v9.55h-19.2V66.47H341.11Z"/><path class="cls-1" d="M426.46,2.87H438V66.47H426.46Z"/><path class="cls-1" d="M456.22,2.87h10.92L496.9,47.18V2.87h11.56V66.47H497.53L467.78,22.07V66.47H456.22Z"/><path class="cls-1" d="M590.35,2.87h11.19l25.39,63.61H615.2l-5.82-14.65H582.44L576.7,66.47H564.87Zm15.83,39.4-10.28-27-10.28,27Z"/><path class="cls-1" d="M690.59,66.79A36.35,36.35,0,0,1,681.53,64V54.1a43.31,43.31,0,0,0,9.55,3.28,46,46,0,0,0,9.83,1.09q6.1,0,9.28-2.28a7.29,7.29,0,0,0,3.19-6.28,7.4,7.4,0,0,0-1.46-4.69,12.31,12.31,0,0,0-4.28-3.28q-2.82-1.41-8.64-3.69-8.92-3.64-12.92-8.1a16,16,0,0,1-4-11.1,15.56,15.56,0,0,1,2.82-9.19,18.14,18.14,0,0,1,7.92-6.19A29.57,29.57,0,0,1,704.56,1.5a48.76,48.76,0,0,1,9.69.86A40.4,40.4,0,0,1,722.57,5V14.7a36.5,36.5,0,0,0-16-3.82q-5.82,0-9,2.14a6.87,6.87,0,0,0-3.19,6.05,7,7,0,0,0,1.46,4.6,11.87,11.87,0,0,0,3.87,3q2.41,1.23,8.69,3.87a55.24,55.24,0,0,1,10.05,5.19,17.49,17.49,0,0,1,5.55,6A17.17,17.17,0,0,1,725.85,50q0,8.46-6.1,13.15t-18,4.69A59.67,59.67,0,0,1,690.59,66.79Z"/><path class="cls-1" d="M742.23,2.87h10.92l29.76,44.32V2.87h11.56V66.47H783.54L753.79,22.07V66.47H742.23Z"/><path class="cls-1" d="M836.32,2.87h11.19L872.9,66.47H861.16l-5.82-14.65H828.4l-5.73,14.65H810.84Zm15.83,39.4-10.28-27-10.28,27Z"/><path class="cls-1" d="M889.28,2.87h25.48q10.46,0,16.79,5.55t6.32,15.2q0,10-6.28,15.24t-16.93,5.23H900.84V66.47H889.28Zm24,31.67q13,0,13-10.92,0-11.19-13-11.19H900.84V34.53Z"/><path class="cls-1" d="M1016.13,2.87h11.19l25.39,63.61H1041l-5.82-14.65h-26.94l-5.73,14.65H990.65ZM1032,42.27l-10.28-27-10.28,27Z"/><path class="cls-1" d="M1069.1,2.87h25.48q10.46,0,16.79,5.55t6.32,15.2q0,10-6.28,15.24t-16.93,5.23h-13.83V66.47H1069.1Zm24,31.67q13,0,13-10.92,0-11.19-13-11.19h-12.47V34.53Z"/><path class="cls-1" d="M1130.89,2.87h25.48q10.46,0,16.79,5.55t6.32,15.2q0,10-6.28,15.24t-16.93,5.23h-13.83V66.47h-11.56Zm24,31.67q13,0,13-10.92,0-11.19-13-11.19h-12.47V34.53Z"/></g></g></svg>