<svg xmlns="http://www.w3.org/2000/svg" viewBox="0 0 1032.65 69.34"><defs><style>.cls-1{fill:#fff;}</style></defs><title>target_red_title</title><g id="Layer_2" data-name="Layer 2"><g id="Layer_1-2" data-name="Layer 1"><path class="cls-1" d="M33.76,68H19.2V13.92H0V1.37H53V13.92H33.76ZM22.2,65h8.56V10.92H50V4.37H3v6.55H22.2Z"/><path class="cls-1" d="M117.1,68h-15L96.3,53.32H71.41L65.68,68H50.61L77.29,1.37H90.51Zm-12.94-3h8.51L88.48,4.37H79.32L55,65h8.59l5.73-14.65h29ZM96.31,43.77H71.4L83.85,11Zm-20.57-3H92L83.85,19.46Z"/><path class="cls-1" d="M182,68H166.76l-12.28-23.3H144.32V68H129.76V1.37h28.07c7.39,0,13.21,1.88,17.29,5.57s6.23,9.16,6.23,16.13a21.76,21.76,0,0,1-3.73,12.79,19.84,19.84,0,0,1-8.93,7Zm-13.41-3H177L164.42,41.12l1.69-.55a17.38,17.38,0,0,0,9.07-6.44,18.82,18.82,0,0,0,3.18-11.06c0-6.08-1.76-10.76-5.24-13.9s-8.66-4.8-15.28-4.8H132.76V65h8.56V41.68h15ZM155.74,35.12H141.32V10.92h14.42c11.62,0,14.06,6.61,14.06,12.15,0,4-1.36,7.06-4,9.11A16.11,16.11,0,0,1,155.74,35.12Zm-11.42-3h11.42a13.22,13.22,0,0,0,8.19-2.33c1.93-1.47,2.87-3.67,2.87-6.72,0-3.93-1.15-9.15-11.06-9.15H144.32Z"/><path class="cls-1" d="M227.09,69.34a39.35,39.35,0,0,1-18.44-4.22h0A30.62,30.62,0,0,1,196,53a36.41,36.41,0,0,1-4.47-18.26A36.41,36.41,0,0,1,196,16.46,30.91,30.91,0,0,1,208.64,4.27,39,39,0,0,1,227.09,0a48.48,48.48,0,0,1,12.59,1.51A31.13,31.13,0,0,1,249.9,6.38l.62.45v15L248,19.74A23.33,23.33,0,0,0,239.4,15a39.78,39.78,0,0,0-11.31-1.48,23.94,23.94,0,0,0-11.18,2.61,19.57,19.57,0,0,0-7.83,7.36,21.39,21.39,0,0,0-2.88,11.19A22.67,22.67,0,0,0,208.92,46a18.55,18.55,0,0,0,7.5,7.34A23.31,23.31,0,0,0,227.54,56a24.75,24.75,0,0,0,10.06-1.81V42.31H226.86V30.12h25.29V62l-.58.45C245.69,67,237.45,69.34,227.09,69.34Zm0-66.34a36,36,0,0,0-17,3.92,28,28,0,0,0-11.41,11,33.46,33.46,0,0,0-4.08,16.78,33.46,33.46,0,0,0,4.08,16.78,27.67,27.67,0,0,0,11.4,11h0a36.38,36.38,0,0,0,17,3.88c9.34,0,16.76-2,22.07-5.8V33.12H229.86v6.19H240.6V56l-.81.42A26.52,26.52,0,0,1,227.54,59,26.26,26.26,0,0,1,215,56a21.51,21.51,0,0,1-8.7-8.5,25.62,25.62,0,0,1-3.11-12.8A24.33,24.33,0,0,1,206.51,22a22.53,22.53,0,0,1,9-8.47,26.91,26.91,0,0,1,12.57-2.95,42.76,42.76,0,0,1,12.17,1.61,26.59,26.59,0,0,1,7.26,3.41V8.37a28.22,28.22,0,0,0-8.63-4A45.49,45.49,0,0,0,227.09,3Z"/><path class="cls-1" d="M311.58,68h-46V1.37h46V13.92H280.09V28.39h23.39V40.95H280.09V55.42h31.49Zm-43-3h40V58.42H277.09V37.95h23.39V31.39H277.09V10.92h31.49V4.37h-40Z"/><path class="cls-1" d="M354.17,68H339.61V13.92h-19.2V1.37h53V13.92h-19.2Zm-11.56-3h8.56V10.92h19.2V4.37h-47v6.55h19.2Z"/><path class="cls-1" d="M446.76,68H425V1.37h22.79a41.5,41.5,0,0,1,18.69,4,28.89,28.89,0,0,1,12.37,11.51,34.56,34.56,0,0,1,4.3,17.49c0,11-3.26,19.4-9.7,25.1S458.06,68,446.76,68ZM428,65h18.79c10.55,0,18.85-2.61,24.67-7.77s8.69-12.8,8.69-22.86a31.61,31.61,0,0,0-3.89-16A25.93,25.93,0,0,0,465.11,8a38.55,38.55,0,0,0-17.35-3.66H428Zm19-6.56H436.52V10.92h11.6a24.89,24.89,0,0,1,12.39,3,20.51,20.51,0,0,1,8.14,8.34,25.54,25.54,0,0,1,2.82,12.13c0,7.48-2.15,13.42-6.4,17.67S454.72,58.42,446.94,58.42Zm-7.42-3h7.42c7,0,12.34-1.86,16-5.52s5.52-8.89,5.52-15.55A22.59,22.59,0,0,0,466,23.63a17.56,17.56,0,0,0-7-7.13,21.94,21.94,0,0,0-10.91-2.58h-8.6Z"/><path class="cls-1" d="M511,68H496.49V1.37H511Zm-11.56-3H508V4.37h-8.56Z"/><path class="cls-1" d="M560,69.34a39.35,39.35,0,0,1-18.44-4.22h0A30.62,30.62,0,0,1,528.9,53a36.41,36.41,0,0,1-4.47-18.26,36.41,36.41,0,0,1,4.47-18.26A30.91,30.91,0,0,1,541.51,4.27,39,39,0,0,1,560,0a48.48,48.48,0,0,1,12.59,1.51,31.13,31.13,0,0,1,10.23,4.88l.62.45v15l-2.48-2.14a23.33,23.33,0,0,0-8.64-4.7A39.78,39.78,0,0,0,561,13.56a23.94,23.94,0,0,0-11.18,2.61A19.57,19.57,0,0,0,542,23.52a21.39,21.39,0,0,0-2.88,11.19A22.67,22.67,0,0,0,541.79,46a18.55,18.55,0,0,0,7.5,7.34A23.31,23.31,0,0,0,560.42,56a24.75,24.75,0,0,0,10.06-1.81V42.31H559.73V30.12H585V62l-.58.45C578.56,67,570.32,69.34,560,69.34ZM560,3a36,36,0,0,0-17,3.92,28,28,0,0,0-11.41,11,33.46,33.46,0,0,0-4.08,16.78,33.46,33.46,0,0,0,4.08,16.78,27.67,27.67,0,0,0,11.4,11h0a36.38,36.38,0,0,0,17,3.88c9.34,0,16.76-2,22.07-5.8V33.12H562.73v6.19h10.74V56l-.81.42A26.52,26.52,0,0,1,560.42,59a26.26,26.26,0,0,1-12.54-3,21.51,21.51,0,0,1-8.7-8.5,25.62,25.62,0,0,1-3.11-12.8A24.33,24.33,0,0,1,539.38,22a22.53,22.53,0,0,1,9-8.47A26.91,26.91,0,0,1,561,10.56a42.76,42.76,0,0,1,12.17,1.61,26.59,26.59,0,0,1,7.26,3.41V8.37a28.22,28.22,0,0,0-8.63-4A45.49,45.49,0,0,0,560,3Z"/><path class="cls-1" d="M613,68H598.41V1.37H613Zm-11.56-3H610V4.37h-8.56Z"/><path class="cls-1" d="M658.28,68H643.73V13.92h-19.2V1.37h53V13.92h-19.2Zm-11.56-3h8.56V10.92h19.2V4.37h-47v6.55h19.2Z"/><path class="cls-1" d="M741.63,68h-15l-5.82-14.65H695.94L690.2,68H675.13L701.81,1.37H715Zm-12.94-3h8.51L713,4.37h-9.16L679.57,65h8.59l5.73-14.65h29Zm-7.85-21.21H695.92L708.38,11Zm-20.57-3h16.21l-8.11-21.31Z"/><path class="cls-1" d="M799.42,68H754.29V1.37h14.56V55.42h30.58Zm-42.13-3h39.13V58.42H765.85V4.37h-8.56Z"/><path class="cls-1" d="M903.24,68H888l-12.29-23.3H865.58V68H851V1.37h28.07c7.39,0,13.21,1.88,17.3,5.57s6.23,9.16,6.23,16.13a21.76,21.76,0,0,1-3.73,12.79,19.84,19.84,0,0,1-8.93,7Zm-13.41-3h8.44L885.67,41.12l1.69-.55a17.37,17.37,0,0,0,9.07-6.44,18.82,18.82,0,0,0,3.18-11.06c0-6.08-1.76-10.76-5.24-13.9s-8.66-4.8-15.28-4.8H854V65h8.56V41.68h15ZM877,35.12H862.58V10.92H877c11.62,0,14.06,6.61,14.06,12.15,0,4-1.36,7.06-4,9.11A16.11,16.11,0,0,1,877,35.12Zm-11.42-3H877a13.22,13.22,0,0,0,8.19-2.33c1.93-1.47,2.87-3.67,2.87-6.72,0-3.93-1.15-9.15-11.06-9.15H865.58Z"/><path class="cls-1" d="M962,68H916V1.37h46V13.92H930.55V28.39h23.39V40.95H930.55V55.42H962Zm-43-3h40V58.42H927.55V37.95h23.39V31.39H927.55V10.92H959V4.37H919Z"/><path class="cls-1" d="M996.3,68H974.51V1.37H997.3a41.51,41.51,0,0,1,18.69,4,28.89,28.89,0,0,1,12.37,11.51,34.55,34.55,0,0,1,4.3,17.49c0,11-3.26,19.4-9.7,25.1S1007.61,68,996.3,68Zm-18.79-3H996.3c10.55,0,18.85-2.61,24.67-7.77s8.69-12.8,8.69-22.86a31.6,31.6,0,0,0-3.9-16A25.93,25.93,0,0,0,1014.65,8,38.55,38.55,0,0,0,997.3,4.37H977.51Zm19-6.56H986.06V10.92h11.6a24.88,24.88,0,0,1,12.39,3,20.51,20.51,0,0,1,8.14,8.33A25.54,25.54,0,0,1,1021,34.35c0,7.48-2.15,13.42-6.4,17.67S1004.26,58.42,996.48,58.42Zm-7.42-3h7.42c7,0,12.34-1.86,16-5.52S1018,41,1018,34.35a22.59,22.59,0,0,0-2.46-10.72,17.56,17.56,0,0,0-7-7.13,21.94,21.94,0,0,0-10.91-2.58h-8.6Z"/></g></g></svg>